<svg width="5334" height="5334" viewBox="0 0 5334 5334" fill="none" xmlns="http://www.w3.org/2000/svg">
<path d="M5270.99 3523.53C5267.21 3506.09 5272.33 3480.27 5254.48 3463.01C5246.05 3544.71 5280.03 3616.43 5333.33 3660.37V3637.32C5301.72 3606.24 5279.95 3564.96 5270.99 3523.53Z" fill="#E2E2E2"/>
<path d="M5317.01 2258.67C5321.88 2262.16 5327.41 2265.08 5333.33 2267.73V2254.09C5299.88 2233.59 5276.69 2208.01 5303.27 2165.13C5303.71 2181.72 5318.28 2193.4 5333.33 2197.08V2187.36C5322.99 2183.71 5314.2 2172.69 5314.27 2159.63C5320.8 2156.73 5327.39 2156.28 5333.33 2157.63V2147.39C5328.96 2146.41 5324.4 2145.89 5319.77 2145.88C5323.48 2140.47 5327.39 2135.28 5333.33 2132.11V2123.61C5331.67 2123.77 5329.91 2123.87 5328.03 2123.87C5279.88 2154.03 5264.64 2221.15 5317.01 2258.67Z" fill="#E2E2E2"/>
<path d="M5267.49 2275.17C5231.63 2252.35 5189.39 2213.12 5190.47 2148.63C5191.04 2113.44 5210.83 2073.77 5231.73 2049.59C5256.07 2021.43 5293.81 2004.32 5333.33 1999.08V1979.56C5329.75 1979.91 5326.15 1980.31 5322.52 1980.81C5244.83 1991.51 5184.88 2059.99 5176.71 2129.37C5165.87 2221.43 5227.23 2274.77 5278.51 2299.95C5295.36 2308.21 5314.59 2312.16 5333.33 2317.51V2300.52C5310.23 2293.53 5287.08 2287.64 5267.49 2275.17Z" fill="#E2E2E2"/>
<path d="M5239.52 575.147C5258.12 575.707 5274.76 574.294 5286.88 568.347C5293.84 564.934 5299.32 560.027 5302.8 553.134C5310 556.934 5323.37 554.574 5324.8 564.147C5308.68 562.44 5297.39 565.547 5288 570.587C5275.31 577.4 5266.12 587.72 5253.28 594.4C5242.99 593.694 5237.24 588.44 5239.52 575.147ZM5286.28 544.88C5282.39 556.574 5266.95 556.72 5253.28 558.64C5259.27 549.04 5269.45 543.654 5286.28 544.88ZM5231.27 553.134C5222.44 528.32 5234.16 503.787 5258.77 503.614C5264.69 521.56 5286.51 523.56 5302.8 531.134C5279.21 522.854 5244.08 534.187 5231.27 553.134ZM5283.53 594.4C5289.64 585.854 5300.95 582.467 5313.8 580.653C5306.29 587.8 5297.27 593.467 5283.53 594.4ZM5278.04 797.987C5277.56 762.093 5303.89 733.92 5305.55 704.453C5306.97 678.787 5280.21 657.027 5297.29 638.427C5349.88 655.293 5307.43 770.254 5333.33 807.28V683.12C5327.48 660.56 5315.79 648.547 5313.8 630.174C5318.92 629.787 5322.99 628.36 5324.8 624.667C5328.09 626.814 5330.88 629.293 5333.33 632.027V597.76C5315.8 616.813 5291.04 628.627 5258.77 632.92C5258.51 624.4 5262.13 619.774 5264.28 613.667C5296.24 613.534 5318.01 603.187 5333.05 586.147C5333.15 586.187 5333.24 586.24 5333.33 586.28V547.853C5329.12 544.56 5324.45 541.747 5319.31 539.387C5320.09 527.587 5315.48 521.2 5311.05 514.627C5276.65 504.533 5247.11 467.467 5220.27 503.614C5200.67 529.974 5221.25 555.693 5223.01 591.653C5227.16 603.107 5241.77 604.067 5245.03 616.414C5241.44 624.4 5241.44 635.947 5245.03 643.92C5250.44 650.413 5265.05 647.747 5272.53 652.187C5305.21 694.36 5272.28 728.8 5264.28 764.974C5247.77 839.68 5283.51 878.453 5333.33 890.387V873.16C5301.84 863.44 5278.57 839.84 5278.04 797.987Z" fill="#E2E2E2"/>
<path d="M5308.22 4081.29C5297.92 4082.11 5290.35 4100.55 5284.56 4100.37C5259.82 4044.87 5186.8 4025.43 5160.39 4078.95C5131.68 4016.01 5056.59 3988.79 5044.06 4053.75C5039.7 4076.33 5052.23 4108.01 5077.88 4128.21C5077.26 4097.07 5044.18 4065.41 5071.59 4034.72C5123.44 4016.72 5150.18 4113.8 5175.14 4129.76C5187.32 4107.35 5167.38 4094.69 5183.79 4075.43C5204.76 4050.81 5235.38 4065.85 5255.6 4086.29C5278.27 4109.23 5277.56 4144.12 5293.39 4156.93C5311.83 4137.77 5286.92 4117.92 5309.88 4098.83C5320.06 4107.41 5327.54 4116.49 5333.34 4125.75V4099.01C5325.94 4091.2 5317.48 4084.8 5308.22 4081.29Z" fill="#E2E2E2"/>
<path d="M5272.69 0.000817955H5255.04C5264.53 29.0408 5296.55 55.4008 5333.33 69.6675V51.5607C5304.53 41.494 5281.49 24.6408 5272.69 0.000817955Z" fill="#E2E2E2"/>
<path d="M5269.2 5317.8C5265.25 5279.4 5295.57 5238.64 5333.33 5213.33V5197.57C5312.77 5209.37 5295.36 5223.36 5285.71 5235.27C5268.81 5256.12 5248.4 5292.4 5252.69 5323.29C5253.16 5326.67 5253.96 5330.01 5255.04 5333.33H5272.69C5270.96 5328.45 5269.76 5323.29 5269.2 5317.8Z" fill="#E2E2E2"/>
<path d="M5304.97 146.787C5304.31 150.721 5300.43 151.428 5299.47 155.041C5290.55 189.814 5267.96 261.361 5293.96 295.348C5300.37 252.508 5299.03 192.094 5313.23 149.534C5309.69 149.361 5309.43 146.014 5304.97 146.787Z" fill="#E2E2E2"/>
<path d="M5219.68 4976.65C5230.47 5041.12 5251.16 5119.39 5299.47 5155.48C5281.09 5101.28 5244.83 5041.51 5227.93 4976.65C5225.19 4976.65 5222.44 4976.65 5219.68 4976.65Z" fill="#E2E2E2"/>
<path d="M5139.89 141.281C5165.73 133.187 5169.12 102.627 5192.17 91.7604C5200.81 85.7071 5218.88 89.1207 5216.93 72.5073C5172.88 75.5207 5143.15 106.534 5139.89 141.281Z" fill="#E2E2E2"/>
<path d="M5126.15 5317.8C5149.06 5318.27 5197.12 5329.83 5208.68 5315.05C5193.88 5305.09 5135.96 5298.53 5126.15 5317.8Z" fill="#E2E2E2"/>
<path d="M5120.64 5144.48C5117.89 5144.48 5115.13 5144.48 5112.39 5144.48C5124.6 5182.85 5178.93 5217.19 5225.19 5221.51C5205.24 5191.83 5143.56 5180.32 5120.64 5144.48Z" fill="#E2E2E2"/>
<path d="M5058.76 2905.69C5061.44 2883.6 5067.84 2865.25 5072.52 2845.17C5094.56 2859.8 5122.76 2868.28 5138.55 2889.19C5109.57 2892.32 5084.68 2899.53 5058.76 2905.69ZM5039.51 2803.91C5046.11 2788.49 5055.88 2776.25 5064.27 2762.64C5069.6 2774.49 5058.55 2793.53 5061.52 2812.16C5053.73 2818.56 5049.8 2803.52 5039.51 2803.91ZM5039.51 2911.2C5020.77 2919.04 5002.07 2926.93 4981.73 2933.2C4966.21 2883.36 5013.24 2854.44 5028.51 2817.65C5040.59 2820.27 5047.57 2827.95 5056.01 2834.16C5053.37 2862.69 5043.77 2884.27 5039.51 2911.2ZM5006.49 3015.73C4997.15 2996.64 4992.19 2973.17 4987.24 2949.71C4999.79 2943.91 5014.53 2940.31 5025.75 2933.2C5034.33 2954 5013.65 2992.41 5006.49 3015.73ZM4965.23 2880.93C4956.04 2841.51 4937.75 2811.19 4926.71 2773.64C4965.51 2775.17 4988.64 2792.43 5014.75 2806.65C4997.75 2830.92 4987.16 2861.6 4965.23 2880.93ZM4954.23 2944.21C4955.4 2938.99 4960.13 2937.31 4959.72 2930.45C4971.09 2929.6 4964.84 2949.68 4954.23 2944.21ZM5075.28 2823.16C5076.35 2789.79 5089.96 2756.03 5086.28 2726.87C5045.89 2729.6 5047.93 2774.73 5023 2792.89C4995.52 2777.24 4948.75 2743.19 4910.2 2765.39C4908.69 2817.8 4960.47 2860.28 4954.23 2908.44C4951.61 2928.67 4925.31 2937.28 4934.96 2963.47C4947.24 2971.59 4959.64 2959.81 4970.73 2957.96C4982.72 2984.63 4985.77 3034.39 5012 3037.75C5035.55 3009.93 5037.69 2960.75 5053.27 2924.95C5087.93 2911.03 5137.23 2911.72 5168.81 2894.69C5150.71 2857.77 5101.65 2851.8 5075.28 2823.16Z" fill="#E2E2E2"/>
<path d="M4840.4 4457.19C4766.31 4470.75 4723.04 4602.84 4785.37 4669.03C4811.99 4697.28 4933 4725.07 4947.69 4677.28C4962.41 4629.36 4877.68 4579.04 4851.4 4622.25C4880.95 4622.33 4925.63 4627.21 4931.19 4666.28C4899.21 4697.89 4850.52 4686.64 4823.89 4674.53C4728.45 4631.15 4774.61 4430.87 4900.92 4479.2C4961.67 4502.44 5014.24 4588.91 5013.72 4660.77C5012.97 4764.88 4906.04 4785.48 4804.64 4770.81C4814.53 4787.81 4854.11 4792.67 4878.92 4792.83C4957.49 4793.37 5029.63 4741.88 5030.23 4660.77C5030.87 4574.75 4956.41 4435.95 4840.4 4457.19Z" fill="#E2E2E2"/>
<path d="M4899.29 757.294C4846.3 742.987 4878.85 647.694 4867.21 620.454C4844.52 632.12 4853.89 653.814 4829.48 660.494C4798.28 669.027 4781.44 639.361 4776.24 611.081C4770.41 579.374 4790.64 550.934 4784.77 531.427C4758.74 536.88 4768.14 567.307 4738.44 570.174C4723.22 515.587 4752.93 480.76 4753.01 444.787C4730.77 441.467 4735.77 474.574 4711.16 477.174C4680.74 443.987 4711.05 395.667 4710.4 360.027C4680.16 366.947 4673.6 340.187 4648.3 340.081C4652.74 366.454 4673.17 370.081 4691.06 377.347C4684.74 408.041 4669.14 465.774 4699.94 493.081C4706.14 496.627 4720.02 489.374 4725.28 494.267C4716.72 516.187 4712.21 560.307 4729.94 585.601C4738.89 590.721 4755.53 579.747 4760.22 583.147C4749.42 642.947 4798.84 700.12 4850.8 670.76C4839.1 738.934 4885.84 803.707 4932.76 757.081C4949.08 740.841 4956.56 707.614 4946.72 676.481C4929.72 702.574 4939.24 747.36 4899.29 757.294Z" fill="#E2E2E2"/>
<path d="M4834.38 1609.36C4835.18 1611.01 4835.96 1612.65 4836.76 1614.31C4878.51 1612.81 4917.16 1620.12 4955.92 1627.19C4933.04 1594.17 4881.08 1593.87 4834.38 1609.36Z" fill="#E2E2E2"/>
<path d="M4842.47 3538.16C4800.29 3581.51 4734.85 3554.36 4669.01 3570.36C4623.47 3581.43 4606.45 3614.01 4565.76 3632.83C4564.72 3623.64 4560.23 3618.83 4555.24 3614.71C4598.21 3578.65 4646.21 3529.04 4714.24 3509.43C4751.44 3498.69 4789.07 3492.08 4782 3451.29C4779.67 3437.83 4766.6 3434.81 4755.83 3418.45C4750.08 3409.72 4748.92 3397.28 4744.31 3392.13C4734.95 3381.72 4690.69 3358.97 4679.24 3358.49C4609.59 3355.49 4605.99 3439 4588.43 3477.63C4570.76 3516.59 4540.49 3543.49 4519.21 3569.2C4511.24 3563.6 4501.43 3560.36 4497.44 3549.68C4511.96 3523.77 4537.4 3511.53 4551.2 3490.48C4578.11 3449.35 4569.97 3397.79 4590.19 3355.48C4607.81 3318.6 4636.65 3280.97 4684.99 3269.11C4842.43 3230.39 4938.72 3439.16 4842.47 3538.16ZM4741.11 3434.09C4741.03 3448.05 4732.28 3455.21 4722.24 3461.33C4713.63 3449.44 4730.09 3438.57 4741.11 3434.09ZM4710.53 3387.93C4720.89 3406.71 4711.44 3427.01 4693.68 3431.56C4673.09 3420.01 4689.71 3389.85 4710.53 3387.93ZM4697.73 3442.15C4720.05 3441.09 4724.04 3413 4727.59 3391.4C4734.85 3400.03 4744.93 3405.03 4745.24 3422.51C4724.43 3428.45 4708.95 3438.57 4708.25 3460.27C4713.97 3460.32 4710.39 3472.28 4717.79 3470.2C4747.93 3471.56 4743.35 3445.75 4757.81 3434.83C4788.77 3452.35 4762.96 3490.21 4742.96 3494.84C4655.29 3515.08 4596.61 3563.55 4548.11 3601.71C4539.87 3594.35 4531.89 3586.67 4525.67 3576.73C4543.57 3555.07 4575.47 3526.65 4594.89 3485.16C4621.52 3428.24 4634.04 3335.31 4704.08 3380.4C4666.91 3383.57 4665.72 3443.67 4697.73 3442.15ZM4471.45 3563.93C4471.8 3561.73 4473.36 3560.48 4476.59 3560.53C4507.49 3585.21 4539.71 3608.25 4552.03 3656.67C4513.04 3643.25 4475.19 3611.89 4471.45 3563.93ZM4444.08 3589.44C4443.67 3585.83 4448.55 3586.37 4448.87 3583.31C4474.71 3621.81 4503.8 3656.19 4543.44 3677.11C4488.48 3689.87 4454.24 3633.76 4444.08 3589.44ZM4483.68 3687.16C4451.72 3682.76 4433.52 3660.79 4428.61 3621.8C4431.99 3621.71 4435.19 3621.84 4434.73 3626.6C4443.65 3633.75 4451.41 3648.6 4460.91 3659.44C4470.15 3670.01 4487.88 3679.23 4483.68 3687.16ZM4421.68 3655.91C4424.27 3672.59 4436.59 3676.81 4442.39 3689.41C4426.75 3691.84 4411.33 3666.33 4421.68 3655.91ZM4605.72 3300.92C4570.04 3344.55 4566.52 3397.13 4549.27 3451.92C4540.13 3480.93 4506.81 3521.39 4482.44 3540.43C4476.96 3544.72 4469.65 3541.61 4463.67 3545.48C4452.31 3552.77 4450.27 3575.85 4431.16 3574.39C4423.35 3602.03 4411.88 3626.81 4401.89 3652.77C4400.15 3679.4 4413.44 3707.24 4441.99 3708.87C4449.83 3709.32 4455.81 3701.77 4465.89 3700.41C4473.87 3699.33 4482.87 3706.19 4491.48 3705.61C4493.24 3705.51 4539.35 3697.92 4543.03 3696.56C4564 3688.77 4571.29 3662.33 4575.95 3648.21C4613.05 3628.2 4632.05 3595.35 4676.47 3586.08C4737.73 3573.31 4799.05 3593.83 4842.39 3560.33C4889.88 3523.63 4906.35 3451.44 4889.71 3379.97C4865.23 3274.65 4694.23 3192.73 4605.72 3300.92Z" fill="#E2E2E2"/>
<path d="M4771.29 2343.69C4774.11 2319.79 4764.47 2308.35 4752.04 2299.68C4739.03 2298.57 4729.07 2300.56 4719.03 2302.43C4709.43 2208.32 4625.76 2261.08 4608.97 2305.19C4601.36 2132.91 4393.63 2358.17 4529.2 2362.96C4521.99 2344.16 4503.49 2352.77 4498.93 2335.44C4490.91 2304.88 4541.47 2252.36 4564.96 2255.67C4608.45 2261.77 4585.16 2337.51 4589.72 2368.45C4619.96 2352.83 4635.61 2258.69 4677.76 2263.92C4698.36 2266.47 4699.8 2292.85 4705.27 2316.19C4692.04 2327.52 4664.08 2369.75 4694.27 2382.21C4728.32 2377.76 4705.03 2315.93 4743.79 2316.19C4769.04 2330.47 4744.8 2377.68 4749.28 2395.97C4779.21 2383.53 4786.24 2346.87 4809.81 2327.19C4818.89 2319.6 4831.71 2313.81 4845.57 2310.68C4856.17 2312.93 4849.95 2332 4864.83 2329.95C4875.17 2261.57 4784.75 2315.03 4771.29 2343.69Z" fill="#E2E2E2"/>
<path d="M4740.56 1465.2C4737.73 1467.64 4738.77 1471.44 4735.51 1473.75C4736.75 1478.09 4739.89 1476.88 4741.57 1479.99C4773.76 1448.73 4828.79 1423.75 4864.6 1399.4C4822.72 1390.71 4768.03 1442.09 4740.56 1465.2Z" fill="#E2E2E2"/>
<path d="M4763.29 1753.48C4771.05 1775.2 4793.84 1803.08 4812.85 1812.05C4813.13 1790.89 4783.51 1755.13 4763.29 1753.48Z" fill="#E2E2E2"/>
<path d="M4571.55 1494.65C4541.84 1504.19 4518 1538.32 4506.53 1562.57C4483.92 1610.44 4479.17 1752.56 4567.84 1740.69C4636.08 1731.57 4677.04 1601.55 4615.88 1574.07C4575.45 1590.25 4566.12 1627.95 4582.63 1657.24C4602.17 1638.67 4582.25 1606.28 4615.6 1592.52C4664.72 1642.76 4568.23 1782.03 4518.08 1694.41C4488.43 1642.56 4513.68 1533.59 4573.75 1511.91C4642.6 1487.04 4709.52 1584.67 4724.11 1659.37C4737.53 1633.55 4723.36 1598.52 4710.61 1574.27C4683.27 1522.25 4616.05 1480.37 4571.55 1494.65Z" fill="#E2E2E2"/>
<path d="M4658.97 1327.39C4629.07 1345.39 4614.03 1385.63 4630.4 1426.63C4646.23 1421.19 4635.31 1406.37 4637.01 1395.97C4636.81 1370.48 4662.88 1354.17 4658.97 1327.39Z" fill="#E2E2E2"/>
<path d="M4610.87 1906.23C4627.4 1895.73 4629.77 1872.12 4635.03 1854.91C4640.05 1838.32 4652.88 1817.09 4643.2 1802.12C4620.35 1832.6 4610.64 1867.68 4610.87 1906.23Z" fill="#E2E2E2"/>
<path d="M4546.85 5048.79C4568.61 5041.71 4589.2 5011.07 4587.76 4986.12C4590.53 5003.85 4586.44 5025.39 4602.04 5036.03C4595.08 5059.64 4568.27 5064.13 4546.85 5048.79ZM4569.97 4998.19C4566.52 5014.71 4558.52 5023 4547.64 5026.12C4553.27 5013.51 4557.65 4998.71 4569.97 4998.19ZM4513.27 5016.24C4523.01 5005.96 4535.15 5000.03 4545.08 4990.12C4552.8 4982.41 4559.2 4972.29 4562.09 4955.85C4570.91 4959.87 4564.95 4972.07 4566.6 4980.04C4559.13 4981.47 4552.99 4985.27 4547.83 4990.87C4538.64 5000.85 4532.61 5016.57 4527.97 5034.77C4514.57 5033.31 4511.11 5026.33 4513.27 5016.24ZM4543.2 4961.87C4537.91 4973.72 4531.53 4983.65 4521.61 4987.16C4526.31 4974.21 4534.25 4967.11 4543.2 4961.87ZM4497.8 5000.35C4491.33 5000.72 4485.88 5002.93 4477.76 5000.32C4492.15 4967.41 4512.79 4945.77 4539.45 4935.03C4542.25 4936.44 4542.73 4939.15 4543.23 4941.84C4522.71 4951.6 4506.75 4969.65 4497.8 5000.35ZM4392.27 4809.73C4392.84 4815.48 4416.52 4819.83 4405.09 4824.87C4403.17 4819.85 4383.24 4813.47 4392.27 4809.73ZM4397.49 4851.31C4394.45 4830.91 4369.48 4831.04 4351.41 4832.35C4348.08 4816.27 4362.97 4811.03 4372.99 4807.05C4381.55 4815.47 4401.59 4846.21 4418.31 4828.67C4420.99 4810.88 4402.6 4804.75 4383.96 4798.76C4387.84 4776.6 4408.97 4780.07 4419.12 4785.96C4438.27 4797.07 4428.28 4845.84 4439.04 4866.11C4459.07 4903.89 4495.04 4910.11 4503.93 4939.13C4499.88 4939.87 4497.39 4943.39 4495.6 4948.19C4475.47 4939.97 4467.51 4921.25 4438.23 4908.81C4398.45 4891.91 4319.31 4895.17 4340.81 4849.33C4351.47 4858.67 4385.76 4884.75 4397.49 4851.31ZM4385.4 4853.56C4381.96 4855.37 4378.55 4857.25 4375.19 4859.21C4361.79 4857 4357.6 4849.69 4354.43 4841.8C4364.69 4842.95 4372.21 4839.15 4385.03 4844.87C4384.21 4848.29 4387.36 4849.48 4385.4 4853.56ZM4421.93 4935.61C4393.16 4929.07 4358.81 4946.59 4324.44 4936.23C4217.19 4903.92 4280.44 4751.19 4357.24 4722.39C4377.81 4714.67 4411 4717.13 4433.2 4727.03C4516.56 4764.17 4474.8 4856.89 4520.59 4921.03C4523.63 4922.49 4521.39 4924.43 4519.07 4926.31C4486.73 4917.39 4471.04 4880.36 4446.61 4859.69C4442.71 4824.05 4440.59 4755.2 4384.76 4776.08C4378.15 4801.27 4360.75 4797.39 4345.4 4813.44C4345.64 4845 4324.4 4843.79 4324.92 4864.8C4326.24 4918.97 4481.2 4899.57 4483.11 4961.77C4460.52 4973.07 4447 4941.33 4421.93 4935.61ZM4584.37 4967.97C4580.77 4944.04 4566.97 4925.73 4539.49 4915C4498.35 4870.21 4520.64 4807.85 4494.75 4761.89C4470.23 4718.37 4405.51 4688.59 4356.52 4705C4254.49 4739.17 4183 4948 4352.36 4958.56C4389.35 4960.85 4431.55 4938.72 4463.05 4981.77C4465.24 4990.19 4458.64 5003.49 4463.39 5010.49C4470.07 5016.13 4481.17 5019.33 4489.83 5018.09C4500.8 5024.63 4497.69 5038.93 4507.55 5046.08C4541.63 5057.71 4560.67 5084.59 4591.4 5073.04C4633.56 5057.21 4606.11 5018.59 4605.89 4982.75C4600.8 4976.67 4595.95 4970.47 4584.37 4967.97Z" fill="#E2E2E2"/>
<path d="M4545.01 1458.57C4553.32 1441.75 4522.07 1403.45 4511.71 1383.01C4498.61 1400.21 4529.63 1449.55 4545.01 1458.57Z" fill="#E2E2E2"/>
<path d="M4416.98 1871.31C4418.17 1873.79 4419.37 1876.27 4420.56 1878.75C4437.44 1874.31 4451.78 1855.77 4464.17 1842.49C4476.52 1829.25 4493.96 1816.07 4495.57 1799.89C4459.64 1812.19 4440.74 1847.93 4416.98 1871.31Z" fill="#E2E2E2"/>
<path d="M4349.56 1445.77C4350.76 1448.25 4351.95 1450.73 4353.15 1453.21C4395.39 1458.32 4432.49 1508.91 4467.89 1514.01C4443.95 1474.21 4389.44 1440.15 4349.56 1445.77Z" fill="#E2E2E2"/>
<path d="M4244.88 1615.24C4246.07 1617.72 4247.27 1620.2 4248.45 1622.68C4314.21 1609.77 4383.81 1616.52 4440.61 1609.57C4387.13 1581.69 4307.64 1597 4244.88 1615.24Z" fill="#E2E2E2"/>
<path d="M4155.96 590.52C4081.87 604.08 4038.59 736.16 4100.93 802.36C4127.53 830.614 4248.56 858.401 4263.25 810.614C4277.97 762.694 4193.23 712.373 4166.96 755.587C4196.51 755.667 4241.19 760.547 4246.75 799.614C4214.77 831.214 4166.08 819.96 4139.45 807.867C4044.01 764.48 4090.17 564.2 4216.48 612.534C4277.23 635.774 4329.8 722.24 4329.28 794.107C4328.53 898.214 4221.6 918.814 4120.19 904.147C4130.09 921.147 4169.65 926 4194.47 926.16C4273.04 926.707 4345.17 875.214 4345.79 794.107C4346.41 708.08 4271.97 569.28 4155.96 590.52Z" fill="#E2E2E2"/>
<path d="M4253.87 4307.03C4255.35 4325.87 4218.49 4341.23 4204.35 4318.03C4201.45 4280.95 4251.85 4281.75 4253.87 4307.03ZM4058.53 4384.05C4072.53 4384.23 4080.35 4383.09 4083.29 4395.05C4096.16 4447.24 3989.87 4419.81 4030.92 4389.64C4030.03 4390.56 4047 4383.92 4058.53 4384.05ZM3898.97 4364.8C3891.52 4414.87 3824.96 4347.24 3876.96 4340.04C3889.28 4338.33 3901.12 4350.32 3898.97 4364.8ZM3923.73 4232.75C3908.49 4233.32 3900.68 4226.47 3893.47 4218.99C3893.11 4196.21 3920.27 4180.61 3934.73 4196.97C3936.55 4214.36 3927.12 4220.53 3923.73 4232.75ZM4053.04 4152.96C4034.96 4155.47 4025.88 4148.95 4020.03 4139.2C4022.2 4116.76 4058.56 4099.48 4069.55 4125.45C4068.47 4139.07 4059.39 4144.63 4053.04 4152.96ZM4176.84 4194.23C4126.76 4196.63 4102.15 4173.53 4080.55 4147.45C4107.56 4077.05 3999.91 4085.45 4003.52 4139.2C4005.31 4165.95 4042.41 4178.32 4072.29 4163.96C4094.65 4186.55 4119.92 4206.23 4157.57 4213.48C4129.49 4229.67 4108.93 4263.95 4072.29 4268.51C4025.75 4274.31 3982.77 4237.2 3948.49 4218.99C3954.73 4210.71 3949.71 4195.39 3948.49 4185.97C3920.57 4155.99 3872.59 4184.44 3876.96 4218.99C3880.48 4246.75 3922.85 4258.31 3948.49 4238.24C3974.49 4259.01 4010.64 4269.64 4042.03 4285.01C3995.89 4301.24 3950.05 4317.75 3904.48 4334.53C3881.44 4308.12 3843.95 4329.17 3841.2 4353.79C3835.04 4408.99 3928.24 4416.71 3915.48 4348.29C3961.12 4331.56 4007.04 4315.11 4053.04 4298.77C4044.69 4319.76 4036.61 4341.05 4033.77 4367.55C4016.36 4381.17 4004.37 4387.03 4006.27 4408.81C4010.61 4458.59 4117.28 4450.11 4099.8 4386.81C4095.21 4370.19 4074.6 4367.19 4053.04 4362.05C4053.36 4276.16 4129.19 4265.81 4174.08 4224.49C4159.56 4272.55 4204.68 4280.15 4187.84 4326.28C4210.2 4362.73 4274.12 4344.85 4270.37 4304.28C4268.07 4279.09 4231.75 4261.47 4204.35 4279.51C4159.89 4232.99 4213.76 4184.35 4237.36 4150.21C4265.31 4109.77 4286.75 4061.6 4303.39 4012.65C4311.45 3988.91 4327.84 3964.07 4319.89 3938.37C4276.97 4028.41 4250.29 4134.72 4176.84 4194.23Z" fill="#E2E2E2"/>
<path d="M4188.73 2704.07C4097.48 2688.11 4045.01 2776.67 4048.43 2860.88C4054.92 2866.85 4055.33 2877.39 4062.17 2885.64C4088.23 2917.04 4188.21 2957.31 4227.25 2924.16C4169 2918.52 4084.99 2910.08 4067.68 2860.88C4042.81 2790.27 4123.45 2708.72 4185.99 2720.57C4230.24 2728.97 4246.84 2781.71 4224.49 2814.12C4210.91 2833.81 4169.41 2864.73 4155.72 2827.87C4161.67 2812.88 4183.09 2839.12 4183.23 2816.87C4177.97 2807.01 4160.2 2802.75 4147.47 2808.61C4136.93 2816.12 4136.65 2841.99 4144.72 2852.63C4203.15 2879.01 4262.57 2821.87 4252.01 2764.6C4246.89 2736.84 4214.61 2708.61 4188.73 2704.07Z" fill="#E2E2E2"/>
<path d="M3992.65 3460.72C3978.72 3485.77 3954.32 3477.56 3932.49 3475C3863.32 3359.67 3732.22 3311.45 3639.16 3338.19C3621.28 3314.96 3591.72 3286.63 3607.21 3264.61C3630.61 3231.36 3714.64 3258.85 3766.89 3278.4C3837.89 3304.97 3887.23 3329.75 3935.21 3369.92C3964.57 3394.47 4006.24 3436.27 3992.65 3460.72ZM3890.07 3683.64C3836.08 3764.33 3785.44 3880 3695.56 3862.83C3643.88 3852.96 3463.92 3779.16 3460.24 3694.24C3459.08 3667.05 3480.88 3630.88 3494.17 3596.6C3532.27 3498.47 3544.91 3398.75 3594.05 3305.61C3701.15 3438.91 3854.76 3503.21 3979.36 3490.04C3965.1 3546.04 3940.63 3608.05 3890.07 3683.64ZM3499.16 3520.67C3411.49 3565.49 3439.63 3394.4 3515.57 3421.27C3520.07 3454.29 3509.22 3487.48 3499.16 3520.67ZM3410.37 3583.91C3345.23 3526.93 3400.09 3377.97 3473.57 3318.63C3488.61 3306.47 3514.96 3289.29 3533.77 3308.23C3559.27 3333.89 3538.82 3381.91 3531.09 3417.2C3530.78 3411.13 3519.45 3400.05 3513.39 3399.89C3421.08 3389.84 3388.7 3563.41 3493.61 3546.01C3483.28 3584.01 3436.35 3606.61 3410.37 3583.91ZM3944.8 3356.19C3870.65 3294.64 3754.03 3242.88 3674.97 3234.68C3653.05 3232.41 3614.61 3232.52 3597.33 3251.11C3576.53 3273.44 3583.88 3307.95 3561.31 3335.16C3553.48 3277.37 3508.05 3269.68 3463.69 3305.12C3406.98 3350.43 3353.67 3452.64 3363 3522.17C3372.19 3590.43 3421.92 3626.48 3474.76 3600.71C3449.45 3664.07 3426.63 3700.59 3472.6 3756.36C3521.09 3815.21 3619.06 3862.44 3687.96 3878.48C3762.34 3895.83 3811.5 3837.43 3857.88 3763.76C3915.85 3671.68 3966.24 3594.71 3995.09 3505.44C4001.41 3485.91 4011.52 3464.87 4012.01 3452.72C4013.2 3423.29 3975.44 3381.63 3944.8 3356.19Z" fill="#E2E2E2"/>
<path d="M3936.31 1660.71C3947.77 1631.55 3973.01 1577.32 3947.31 1545.16C3941.81 1540.59 3926.89 1545.37 3922.55 1539.65C3934.73 1519.52 3946.71 1476.83 3933.56 1448.87C3925.61 1442.29 3907.33 1450.27 3903.29 1446.12C3924.15 1389.03 3885.23 1324.27 3829.01 1344.32C3852.17 1279.15 3817.19 1207.35 3762.99 1245.28C3744.15 1258.49 3731.11 1289.96 3735.48 1322.32C3756.69 1299.51 3754.96 1253.76 3796 1250.79C3845.77 1273.92 3797.43 1362.27 3804.25 1391.09C3828.6 1383.48 3823.07 1360.51 3848.27 1358.08C3880.47 1355 3891.99 1387.11 3892.29 1415.85C3892.61 1448.09 3867.83 1472.67 3870.28 1492.89C3896.85 1491.95 3892.79 1460.37 3922.55 1462.63C3928.23 1519 3893 1548.24 3886.79 1583.68C3908.13 1590.75 3908.85 1557.27 3933.56 1558.92C3957.85 1596.8 3919.75 1639.25 3914.29 1674.47C3945.28 1672.81 3947.17 1700.29 3972.07 1704.72C3972.21 1677.99 3952.71 1670.91 3936.31 1660.71Z" fill="#E2E2E2"/>
<path d="M3812.15 71.4272C3823.91 53.7739 3822.92 27.7607 3825.4 0.000687851H3808.04C3806.51 10.6274 3805.56 20.7739 3805.11 30.0272C3801.49 20.8806 3798.28 10.7074 3795.76 0.000687851H3777.89C3781.64 27.0674 3790.19 52.0939 3812.15 71.4272Z" fill="#E2E2E2"/>
<path d="M3605.83 38.7073C3605.84 80.9873 3603.43 124.294 3612.15 162.854C3568.64 133.387 3555.4 66.6806 3605.83 38.7073ZM3476.17 191.094C3463.37 242.134 3487.96 313 3567.25 325.72C3582.32 328.147 3607.63 322.841 3627.05 317.174C3704.52 294.707 3738.85 267.081 3825.03 216.067C3881.99 182.347 3924.8 146.707 3954.08 101.947C3975.59 69.0674 3987.4 33.2805 3989.31 0.000536366H3970.36C3968.87 25.1339 3961.72 51.7605 3949.56 76.4005C3921.92 132.347 3872.03 167.92 3816.4 200.694C3731.51 250.707 3697.05 277.16 3621.99 300.32C3603.23 306.107 3582.84 311.987 3575.99 311.414C3536.28 308.374 3494.92 271.08 3487.29 237.094C3475.53 184.814 3522.09 127.814 3556.65 87.1073C3558.09 127.921 3579.76 180.787 3632.51 185.92C3630.83 130.574 3597.68 58.4804 3650.89 0.493766C3655.09 56.5338 3661.2 122.907 3711.28 152.414C3725.01 132.974 3717.39 100.094 3718.13 69.1604C3718.65 48.0804 3720.01 23.6272 3725.04 0.000536366H3708.67C3699.88 42.9339 3698.04 82.9074 3700.12 121.214C3677.68 91.2141 3662.32 40.0272 3673.97 0.000536366H3626.13C3562.37 50.2939 3497.07 107.907 3476.17 191.094Z" fill="#E2E2E2"/>
<path d="M3873.97 5207.24C3787.25 5207.11 3710.11 5267.76 3636.61 5325.11C3633.13 5327.83 3629.64 5330.57 3626.13 5333.33H3673.97C3680.47 5311.04 3695.33 5292.2 3722.04 5282.44C3716.44 5299.89 3712.04 5316.83 3708.67 5333.33H3725.04C3731.84 5301.39 3745.36 5270.95 3772.71 5252.41C3775.12 5279.11 3774.27 5307.17 3777.89 5333.33H3795.76C3789.15 5305.2 3787.35 5273.4 3795.69 5246.88C3807.47 5235.64 3831.04 5228.32 3842.73 5233.21C3823.09 5263.92 3812.75 5300.92 3808.04 5333.33H3825.4C3826.47 5321.37 3828.19 5309.09 3831.84 5297.01C3839.21 5272.71 3851.69 5251.39 3863.19 5226.63C3941.88 5216 3974.11 5269.97 3970.36 5333.33H3989.31C3993.23 5265.05 3955.43 5207.37 3873.97 5207.24Z" fill="#E2E2E2"/>
<path d="M3793.49 2395.13C3797.15 2363.03 3807.13 2337.23 3812.75 2307.11C3846.59 2328.28 3878.51 2351.4 3920.04 2364.88C3890.96 2388.07 3839.05 2388.43 3793.49 2395.13ZM3774.23 2397.89C3757.48 2395.8 3749.28 2402.29 3732.96 2400.64C3736.89 2368.87 3719.76 2344.6 3724.71 2320.85C3729.69 2296.97 3758 2289.52 3765.97 2268.59C3779.79 2274.97 3788.29 2286.6 3798.99 2296.09C3789.36 2328.64 3782.37 2363.85 3774.23 2397.89ZM3746.72 2510.68C3739.87 2482.71 3739.95 2447.73 3735.72 2417.15C3749.56 2419.07 3754.89 2412.47 3768.73 2414.4C3764.68 2449.77 3753.19 2477.72 3746.72 2510.68ZM3719.21 2293.35C3717.12 2259.67 3707.05 2233.97 3705.45 2199.81C3708.25 2213.73 3754.45 2243.83 3754.97 2254.83C3755.64 2269 3730.52 2281.16 3719.21 2293.35ZM3631.17 2422.65C3653.71 2392 3683.28 2368.37 3705.45 2337.36C3716.57 2351.95 3714.45 2379.73 3716.45 2403.39C3685.92 2407.71 3658.03 2414.64 3631.17 2422.65ZM3829.25 2199.81C3830.47 2223.03 3810.24 2248.64 3807.24 2276.84C3794.15 2274.33 3792.49 2260.41 3779.73 2257.59C3791.27 2233.35 3813.88 2220.2 3829.25 2199.81ZM3876.03 2329.11C3851.4 2315.68 3834.29 2302.43 3821 2285.09C3827.8 2243.16 3858.03 2210.4 3856.76 2169.55C3814.73 2171.85 3798.03 2222.45 3763.23 2241.08C3738.57 2219.87 3726.41 2186.19 3697.2 2169.55C3672.03 2205.61 3706.61 2265.15 3705.45 2312.6C3673.19 2359.21 3624.73 2389.61 3598.16 2441.91C3633.53 2450.24 3674.8 2420.51 3719.21 2419.89C3729.08 2463.23 3710.93 2534.56 3746.72 2551.95C3772.03 2515.83 3771.59 2453.93 3790.73 2411.64C3819.35 2407.63 3847.03 2407.91 3878.77 2400.64C3900.61 2395.63 3945.27 2383.64 3942.05 2362.12C3939.6 2345.69 3891.32 2337.44 3876.03 2329.11Z" fill="#E2E2E2"/>
<path d="M3754.12 3704.6C3744.89 3695.61 3748.53 3686.51 3753.81 3677.37C3766.77 3675.15 3779.75 3677.49 3792.59 3665.27C3790.12 3685.09 3774.19 3702.45 3754.12 3704.6ZM3782.62 3643.97C3788.22 3654.37 3769.73 3659.88 3763.39 3663.64C3762.21 3657.13 3777.32 3644.6 3782.62 3643.97ZM3800.8 3704.08C3811.43 3690.73 3846.85 3671.04 3842.99 3649.15C3829.16 3630.23 3815.68 3640.83 3802.21 3655.43C3801.13 3645.72 3806.5 3635.93 3792.16 3626.36C3727.06 3623.23 3708.92 3751.64 3783.4 3714C3799.17 3745.01 3838.6 3746.21 3853.52 3721C3837.31 3708.11 3804.73 3737.28 3800.8 3704.08Z" fill="#E2E2E2"/>
<path d="M3720.21 3629.11C3713.32 3628.08 3706.48 3628.97 3699.6 3627.57L3698.83 3631.28C3695.16 3630 3703.87 3650.11 3710.72 3650.61C3700.87 3668.87 3672.97 3687.35 3684.09 3705.37C3703.51 3699.93 3715.08 3667.99 3730.18 3650.39C3736.22 3648.15 3747.47 3650.15 3747.58 3640.48C3751.07 3635.24 3737.19 3630.2 3739.61 3625C3754.08 3599.55 3758.51 3563.85 3783.47 3544.75C3783.33 3561.61 3761.03 3578.71 3776.25 3595.41C3792.35 3569.95 3814.32 3544.4 3789.03 3519.39C3743.63 3541.23 3739.11 3594.75 3720.21 3629.11Z" fill="#E2E2E2"/>
<path d="M3694.13 4886.52C3687.21 4879.17 3701.97 4874.24 3700.89 4864C3716.71 4869.55 3729.57 4878.47 3743.73 4885.92C3732.25 4892.05 3712.52 4882.29 3694.13 4886.52ZM3619.03 4795.08C3657.75 4783.25 3686.76 4762.96 3723.49 4749.43C3724.56 4788.23 3708.91 4812.48 3696.48 4839.48C3671.12 4824.15 3639.8 4815.65 3619.03 4795.08ZM3671.81 4882.51C3643.16 4881.8 3621 4873.67 3593.84 4871.23C3584.76 4853.07 3575.61 4834.93 3567.99 4815.07C3616.68 4796.23 3648.69 4841.19 3686.43 4853.95C3684.63 4866.17 3677.44 4873.67 3671.81 4882.51ZM3622.47 4968.56C3617.39 4939.87 3608.52 4915.51 3600.63 4890.07C3622.85 4891.24 3641.59 4896.4 3661.95 4899.72C3648.83 4922.69 3642.27 4951.4 3622.47 4968.56ZM3487.31 4845.33C3505.73 4834.71 3528.81 4828.19 3551.89 4821.67C3558.53 4833.8 3563.12 4848.27 3570.96 4858.99C3550.79 4868.95 3511.07 4850.89 3487.31 4845.33ZM3555.16 4788.36C3560.45 4789.19 3562.44 4793.8 3569.25 4792.92C3570.87 4804.2 3550.41 4799.32 3555.16 4788.36ZM3710.76 4846.79C3724.52 4818.32 3755.36 4769.36 3730.61 4732.4C3678.21 4734.41 3639.32 4788.93 3590.84 4785.95C3570.49 4784.71 3560.12 4759.04 3534.64 4770.44C3527.37 4783.23 3539.96 4794.81 3542.55 4805.76C3516.76 4819.52 3467.31 4825.92 3465.72 4852.31C3495.05 4873.92 3544.28 4872.75 3581.04 4885.88C3597.27 4919.52 3599.89 4968.76 3619.01 4999.12C3654.64 4978.57 3657.29 4929.23 3684.08 4900.99C3717.45 4899.8 3752.05 4911.12 3780.89 4905.48C3775.45 4865.36 3730.55 4870.44 3710.76 4846.79Z" fill="#E2E2E2"/>
<path d="M3714.89 3500.76C3685.11 3523.93 3687.45 3584.53 3671.39 3612.13C3665.55 3612.87 3659.72 3613.63 3653.99 3622.05C3677.36 3633.33 3633.89 3653.85 3644.8 3670.8C3673.35 3673.24 3671.16 3621.69 3698.83 3631.28L3699.6 3627.57C3699.33 3627.52 3699.05 3627.47 3698.79 3627.4C3710.21 3615.72 3696.55 3614.73 3688.87 3610C3705.15 3580.4 3701.11 3531.07 3732.55 3514.19C3731.19 3535.6 3708.19 3557.24 3711.87 3578.61C3749.43 3571.09 3762.88 3463.47 3714.89 3500.76Z" fill="#E2E2E2"/>
<path d="M3614.95 3610.81C3607.24 3589.59 3630.73 3575.08 3649.53 3571.52C3661.71 3590.32 3632.8 3615.04 3614.95 3610.81ZM3661.07 3559.72C3628.41 3531.97 3600.01 3598.71 3564.11 3588.04C3556.99 3553.73 3569.57 3508.88 3607.67 3480.56C3620.53 3495.33 3593.81 3510.53 3606.21 3525.32C3636.39 3512.17 3633.81 3452.48 3597.75 3463.16C3556.8 3503.61 3521.61 3570.71 3560.44 3607.53C3572.16 3611.76 3583.73 3602.72 3595.41 3603.25C3594 3611.69 3596.55 3620.11 3605.41 3628.43C3641.16 3638.87 3692.73 3586.61 3661.07 3559.72Z" fill="#E2E2E2"/>
<path d="M3537.25 597.174C3524.43 578.228 3489.29 566.894 3465.72 575.174C3482 567.601 3503.83 565.587 3509.73 547.654C3534.36 547.827 3546.08 572.361 3537.25 597.174ZM3482.23 588.921C3499.07 587.681 3509.24 593.081 3515.24 602.681C3501.56 600.748 3486.13 600.614 3482.23 588.921ZM3515.24 638.441C3502.39 631.774 3493.21 621.441 3480.52 614.627C3471.13 609.587 3459.83 606.481 3443.71 608.187C3445.15 598.614 3458.51 600.974 3465.72 597.174C3469.21 604.068 3474.68 608.974 3481.64 612.387C3493.75 618.334 3510.39 619.747 3529 619.187C3531.28 632.467 3525.53 637.734 3515.24 638.441ZM3454.72 624.694C3467.56 626.507 3478.87 629.894 3484.97 638.441C3471.25 637.508 3462.23 631.841 3454.72 624.694ZM3509.73 676.961C3474.13 672.227 3447.64 658.361 3429.96 635.694C3430.53 632.614 3433.01 631.401 3435.45 630.187C3450.51 647.214 3472.27 657.561 3504.24 657.708C3506.39 663.814 3510.01 668.427 3509.73 676.961ZM3350.17 811.761C3355.53 809.614 3353.17 785.654 3361.17 795.254C3356.88 798.481 3356.25 819.414 3350.17 811.761ZM3391.44 839.281C3389.71 829.094 3383.99 822.908 3385.93 809.014C3389.45 808.854 3389.73 805.494 3394.19 806.268C3396.88 809.068 3399.64 811.814 3402.44 814.521C3404.01 828.001 3398.15 834.054 3391.44 839.281ZM3402.44 850.281C3408.47 837.468 3424.07 797.294 3388.69 795.254C3369.92 803.814 3376.95 827.774 3383.19 844.774C3368.65 852.428 3359.49 839.547 3352.92 831.027C3358.64 820.481 3382.67 792.734 3361.17 781.508C3343.35 783.841 3342.52 803.214 3341.92 822.774C3319.55 825.161 3317.05 803.894 3319.91 792.508C3325.31 771.054 3374.93 767.174 3391.44 751.241C3422.23 721.561 3418.27 685.268 3443.71 668.708C3445.52 672.388 3449.6 673.828 3454.72 674.214C3452.37 695.828 3436.59 708.654 3432.71 740.241C3427.45 783.121 3452.43 858.281 3402.44 850.281ZM3490.48 842.027C3489.05 954.027 3324.77 935.401 3275.89 869.534C3262.8 851.908 3256 819.334 3259.39 795.254C3272.07 704.881 3372.71 719.414 3421.71 657.708C3422.28 654.374 3424.76 656.001 3427.2 657.708C3427.56 691.241 3396.31 716.548 3383.19 745.734C3350 759.334 3284.41 780.374 3319.91 828.268C3345.93 827.668 3347.01 845.467 3366.68 855.787C3396.95 846.841 3401.64 867.588 3421.71 861.281C3473.4 845.054 3411.96 701.468 3471.23 682.468C3488.31 701.054 3461.53 722.827 3462.97 748.494C3464.61 777.961 3490.95 806.121 3490.48 842.027ZM3457.47 558.668C3453.04 565.241 3448.41 571.614 3449.21 583.427C3427.2 593.494 3413.43 611.814 3410.69 641.201C3379 693.108 3312.92 688.894 3275.89 726.481C3240.84 762.054 3230.08 832.481 3259.39 875.041C3320.4 963.654 3540.85 974.721 3504.24 809.014C3496.23 772.841 3463.29 738.388 3495.99 696.214C3503.47 691.788 3518.07 694.454 3523.49 687.961C3527.07 679.987 3527.07 668.427 3523.49 660.454C3526.73 648.107 3541.35 647.134 3545.51 635.694C3547.27 599.734 3567.84 574.014 3548.25 547.654C3521.4 511.507 3491.85 548.561 3457.47 558.668Z" fill="#E2E2E2"/>
<path d="M3255.84 1341.28C3265.12 1328.35 3278.4 1308.6 3269.6 1291.76C3243.93 1242.57 3150.92 1324.25 3137.55 1344.03C3112.32 1264.28 3017.76 1332.48 3011 1385.31C2965 1382.41 2953.56 1414.05 2933.96 1437.57C2913.23 1407.25 2897.51 1364.53 2854.19 1363.29C2752.64 1360.4 2735.67 1616.89 2810.16 1671.41C2809.36 1651.67 2796.83 1633.84 2790.91 1610.89C2785.19 1588.67 2779.63 1562.77 2779.91 1533.87C2780.45 1473.09 2801.41 1378.01 2854.19 1379.8C2881.36 1380.71 2920.92 1428.85 2925.71 1462.33C2928.91 1484.64 2909.29 1516.39 2939.47 1522.85C2955.72 1513.92 2951.19 1479.05 2944.97 1462.33C2957.84 1433.03 2968.05 1401.07 3011 1401.81C3010.51 1422.47 3009.45 1443.68 3030.25 1443.08C3052.95 1434.47 3035.68 1401.51 3030.25 1388.05C3040.29 1355.72 3066.13 1316.83 3099.03 1322.03C3150.69 1330.2 3103.44 1395.81 3115.53 1426.57C3142.83 1422.72 3134.6 1391.73 3143.05 1371.55C3157.77 1336.28 3214.2 1284.17 3253.09 1302.76C3257.17 1333.41 3227.87 1330.72 3225.59 1355.04C3252.08 1353.64 3268.25 1376.11 3288.87 1371.55C3286.8 1352.51 3266.33 1351.91 3255.84 1341.28Z" fill="#E2E2E2"/>
<path d="M3123.79 1982.29C3126.11 2008.24 3166.35 2023.51 3187.07 1998.8C3174.57 1986.25 3147.56 2002.24 3140.29 1982.29C3144.27 1935.39 3257.11 1912.93 3258.6 1957.53C3260.25 2007.63 3199.77 2097.4 3148.55 2095.09C3104.89 2093.11 3062.05 2017.84 3057.76 1954.79C3050.97 1855.16 3125.52 1781.65 3209.08 1833.73C3206.21 1812.23 3185.88 1803.44 3170.56 1800.72C3080.39 1784.73 3037.44 1874.72 3041.25 1954.79C3044.84 2029.72 3102.96 2129.92 3170.56 2108.84C3210.45 2096.41 3283.85 2008.63 3275.11 1952.03C3264.79 1885.21 3118.59 1923.97 3123.79 1982.29Z" fill="#E2E2E2"/>
<path d="M3179.71 4048.73C3158.8 4035.36 3122.99 4017.88 3105.43 4026.75C3198.47 4069.65 3276.95 4145.16 3220.89 4232.89C3182.2 4293.45 3091.03 4337.36 3027.41 4323.79C2895.16 4295.56 2965.48 4102.43 3069.15 4118C3098.08 4122.35 3145.05 4139.41 3154.65 4183.33C3128.72 4213.08 3088.6 4192.84 3063.77 4176.83C3062.28 4227.39 3160.75 4231.31 3174.49 4183.09C3188.19 4135.01 3071.55 4092.43 3033.85 4101.65C2945.52 4123.23 2909.91 4257.57 2964.67 4309.29C3050.41 4390.27 3188.43 4314.37 3234.73 4241.88C3278.39 4173.52 3245.92 4091.04 3179.71 4048.73Z" fill="#E2E2E2"/>
<path d="M3122.88 5086.63C3074 5152.49 2909.73 5171.12 2908.29 5059.12C2907.83 5023.23 2934.16 4995.05 2935.81 4965.59C2937.24 4939.92 2910.47 4918.16 2927.56 4899.56C2986.81 4918.56 2925.39 5062.15 2977.08 5078.37C2997.13 5084.68 3001.84 5063.93 3032.09 5072.88C3051.77 5062.56 3052.84 5044.76 3078.87 5045.36C3114.36 4997.47 3048.77 4976.43 3015.59 4962.83C3002.47 4933.64 2971.21 4908.33 2971.57 4874.8C2974.03 4873.09 2976.49 4871.47 2977.08 4874.8C3026.07 4936.51 3126.71 4921.97 3139.39 5012.35C3142.77 5036.43 3135.99 5069 3122.88 5086.63ZM3007.33 5056.37C3000.63 5051.15 2994.76 5045.09 2996.33 5031.61C2999.15 5028.92 3001.89 5026.16 3004.59 5023.36C3009.04 5022.59 3009.32 5025.95 3012.84 5026.11C3014.8 5040 3009.07 5046.19 3007.33 5056.37ZM3048.6 5028.85C3042.52 5036.51 3041.89 5015.57 3037.6 5012.35C3045.61 5002.75 3043.24 5026.71 3048.6 5028.85ZM3037.6 4998.6C3016.12 5009.83 3040.13 5037.57 3045.85 5048.12C3039.28 5056.64 3030.12 5069.52 3015.59 5061.87C3021.84 5044.87 3028.85 5020.91 3010.09 5012.35C2974.71 5014.39 2990.31 5054.56 2996.33 5067.37C2946.35 5075.39 2971.32 5000.23 2966.07 4957.33C2962.19 4925.75 2946.4 4912.92 2944.07 4891.31C2949.17 4890.92 2953.25 4889.49 2955.07 4885.8C2980.52 4902.36 2976.56 4938.65 3007.33 4968.33C3023.84 4984.27 3073.48 4988.15 3078.87 5009.6C3081.73 5020.99 3079.23 5042.25 3056.85 5039.87C3056.25 5020.31 3055.43 5000.93 3037.6 4998.6ZM2889.04 4894.05C2888.76 4885.52 2892.4 4880.91 2894.55 4874.8C2926.51 4874.65 2948.27 4864.32 2963.32 4847.28C2965.77 4848.49 2968.24 4849.71 2968.83 4852.79C2951.13 4875.45 2924.64 4889.32 2889.04 4894.05ZM2944.07 4841.79C2936.55 4848.93 2927.53 4854.6 2913.8 4855.53C2919.91 4846.99 2931.21 4843.6 2944.07 4841.79ZM2869.79 4836.28C2888.4 4836.84 2905.04 4835.43 2917.15 4829.48C2924.11 4826.07 2929.57 4821.16 2933.05 4814.27C2940.27 4818.07 2953.64 4815.71 2955.07 4825.28C2938.95 4823.57 2927.64 4826.68 2918.27 4831.72C2905.57 4838.53 2896.39 4848.87 2883.53 4855.53C2873.25 4854.83 2867.49 4849.57 2869.79 4836.28ZM2916.55 4806.01C2912.64 4817.71 2897.21 4817.85 2883.53 4819.77C2889.53 4810.17 2899.72 4804.77 2916.55 4806.01ZM2861.53 4814.27C2852.69 4789.45 2864.41 4764.92 2889.04 4764.75C2894.96 4782.69 2916.77 4784.69 2933.05 4792.27C2909.48 4783.99 2874.35 4795.32 2861.53 4814.27ZM2988.08 4858.29C2985.36 4828.91 2971.57 4810.59 2949.56 4800.52C2950.36 4788.71 2945.75 4782.33 2941.31 4775.76C2906.92 4765.65 2877.37 4728.6 2850.52 4764.75C2830.93 4791.11 2851.52 4816.83 2853.28 4852.79C2857.43 4864.23 2872.04 4865.2 2875.28 4877.55C2871.71 4885.52 2871.71 4897.08 2875.28 4905.05C2880.71 4911.55 2895.31 4908.88 2902.8 4913.31C2935.48 4955.48 2902.55 4989.93 2894.55 5026.11C2857.92 5191.81 3078.37 5180.75 3139.39 5092.13C3168.69 5049.57 3157.93 4979.15 3122.88 4943.57C3085.85 4906 3019.77 4910.2 2988.08 4858.29Z" fill="#E2E2E2"/>
<path d="M3116.15 2833.35C3067.27 2899.21 2903 2917.83 2901.56 2805.84C2901.1 2769.93 2927.43 2741.76 2929.08 2712.29C2930.51 2686.63 2903.74 2664.87 2920.83 2646.27C2980.08 2665.28 2918.66 2808.85 2970.35 2825.09C2990.4 2831.39 2995.11 2810.65 3025.36 2819.59C3045.04 2809.27 3046.11 2791.47 3072.14 2792.08C3107.63 2744.19 3042.04 2723.13 3008.86 2709.55C2995.74 2680.36 2964.48 2655.04 2964.84 2621.51C2967.28 2619.8 2969.76 2618.17 2970.35 2621.51C3019.34 2683.21 3119.98 2668.69 3132.66 2759.07C3136.04 2783.13 3129.24 2815.71 3116.15 2833.35ZM3000.6 2803.08C2993.9 2797.85 2988.03 2791.8 2989.6 2778.32C2992.4 2775.63 2995.16 2772.88 2997.86 2770.07C3002.31 2769.29 3002.59 2772.65 3006.11 2772.83C3008.06 2786.72 3002.34 2792.91 3000.6 2803.08ZM3041.87 2775.57C3035.79 2783.21 3035.16 2762.28 3030.87 2759.07C3038.87 2749.47 3036.51 2773.43 3041.87 2775.57ZM3030.87 2745.31C3009.38 2756.53 3033.4 2784.29 3039.12 2794.83C3032.55 2803.36 3023.39 2816.23 3008.86 2808.59C3015.11 2791.59 3022.12 2767.61 3003.36 2759.07C2967.98 2761.11 2983.58 2801.27 2989.6 2814.09C2939.62 2822.09 2964.59 2746.93 2959.34 2704.04C2955.46 2672.45 2939.67 2659.64 2937.34 2638.01C2942.44 2637.63 2946.52 2636.2 2948.34 2632.51C2973.78 2649.08 2969.82 2685.36 3000.6 2715.05C3017.11 2730.97 3066.74 2734.85 3072.14 2756.32C3075 2767.71 3072.5 2788.97 3050.12 2786.57C3049.52 2767.01 3048.7 2747.65 3030.87 2745.31ZM2882.31 2640.76C2882.03 2632.24 2885.67 2627.61 2887.82 2621.51C2919.78 2621.37 2941.54 2611.03 2956.59 2594C2959.04 2595.21 2961.51 2596.41 2962.1 2599.49C2944.4 2622.17 2917.91 2636.04 2882.31 2640.76ZM2937.34 2588.49C2929.82 2595.65 2920.79 2601.32 2907.07 2602.25C2913.18 2593.69 2924.48 2590.31 2937.34 2588.49ZM2863.06 2582.99C2881.67 2583.55 2898.31 2582.13 2910.42 2576.19C2917.38 2572.77 2922.84 2567.87 2926.32 2560.99C2933.54 2564.77 2946.91 2562.41 2948.34 2571.99C2932.22 2570.28 2920.91 2573.39 2911.54 2578.43C2898.83 2585.24 2889.66 2595.57 2876.8 2602.25C2866.51 2601.53 2860.76 2596.28 2863.06 2582.99ZM2909.82 2552.73C2905.91 2564.43 2890.48 2564.56 2876.8 2566.48C2882.8 2556.88 2892.98 2551.49 2909.82 2552.73ZM2854.79 2560.99C2845.96 2536.17 2857.68 2511.63 2882.31 2511.47C2888.23 2529.4 2910.04 2531.41 2926.32 2538.97C2902.75 2530.69 2867.62 2542.03 2854.79 2560.99ZM2981.35 2605C2978.63 2575.61 2964.84 2557.29 2942.83 2547.23C2943.63 2535.43 2939 2529.04 2934.58 2522.47C2900.19 2512.37 2870.64 2475.31 2843.79 2511.47C2824.2 2537.81 2844.78 2563.55 2846.55 2599.49C2850.7 2610.95 2865.31 2611.91 2868.55 2624.25C2864.98 2632.24 2864.98 2643.79 2868.55 2651.77C2873.98 2658.27 2888.58 2655.6 2896.06 2660.03C2928.75 2702.2 2895.82 2736.64 2887.82 2772.83C2851.19 2938.52 3071.64 2927.47 3132.66 2838.85C3161.96 2796.29 3151.2 2725.85 3116.15 2690.28C3079.12 2652.71 3013.04 2656.92 2981.35 2605Z" fill="#E2E2E2"/>
<path d="M3019.87 3155.23C2903.84 3133.99 2829.4 3272.79 2830.03 3358.81C2830.64 3439.91 2902.77 3491.41 2981.35 3490.87C3006.16 3490.69 3045.72 3485.85 3055.63 3468.85C2954.21 3483.52 2847.28 3462.91 2846.55 3358.81C2846.01 3286.95 2898.59 3200.48 2959.33 3177.24C3085.64 3128.89 3131.8 3329.19 3036.37 3372.56C3009.73 3384.67 2961.04 3395.92 2929.08 3364.31C2934.63 3325.24 2979.31 3320.37 3008.85 3320.29C2982.59 3277.08 2897.85 3327.39 2912.56 3375.32C2927.25 3423.11 3048.28 3395.32 3074.88 3367.07C3137.23 3300.87 3093.95 3168.79 3019.87 3155.23Z" fill="#E2E2E2"/>
<path d="M2755.04 573.427C2766.51 544.267 2791.73 490.041 2766.04 457.881C2760.53 453.321 2745.63 458.107 2741.28 452.387C2753.47 432.24 2765.44 389.547 2752.28 361.601C2744.33 355.014 2726.07 363.001 2722.03 358.841C2742.88 301.761 2703.95 237 2647.75 257.054C2670.91 191.88 2635.91 120.067 2581.72 158.014C2562.87 171.214 2549.83 202.694 2554.2 235.041C2575.41 212.241 2573.68 166.481 2614.73 163.507C2664.49 186.654 2616.16 274.987 2622.99 303.827C2647.33 296.2 2641.8 273.227 2667 270.814C2699.19 267.721 2710.72 299.827 2711.01 328.587C2711.35 360.827 2686.56 385.387 2689.01 405.614C2715.59 404.681 2711.51 373.094 2741.28 375.347C2746.95 431.721 2711.73 460.96 2705.52 496.4C2726.87 503.467 2727.57 469.987 2752.28 471.641C2776.57 509.521 2738.47 551.974 2733.03 587.187C2764 585.534 2765.91 613.027 2790.8 617.454C2790.93 590.707 2771.43 583.64 2755.04 573.427Z" fill="#E2E2E2"/>
<path d="M2505.96 3933.83C2468.01 3886.72 2502.88 3825.04 2494.95 3757.75C2489.48 3711.2 2459.19 3690.37 2445.43 3647.71C2454.68 3647.79 2459.99 3643.91 2464.69 3639.45C2495.28 3686.47 2538.72 3740.12 2549.97 3810.03C2556.13 3848.24 2558.15 3886.39 2599.49 3884.31C2613.15 3883.61 2617.71 3871.01 2635.27 3862.29C2644.61 3857.64 2657.11 3858 2662.77 3854.04C2674.24 3846 2702.17 3804.83 2704.04 3793.52C2715.43 3724.73 2632.97 3711.07 2596.75 3688.97C2560.21 3666.72 2537.16 3633.43 2514.21 3609.19C2520.73 3601.95 2525.13 3592.6 2536.23 3589.93C2560.19 3607.48 2569.27 3634.23 2588.49 3650.45C2626.07 3682.15 2678.23 3680.31 2717.8 3705.48C2752.27 3727.43 2786.13 3760.61 2792.08 3810.03C2811.47 3970.99 2592.59 4041.33 2505.96 3933.83ZM2621.51 3845.79C2607.67 3844.03 2601.61 3834.48 2596.75 3823.77C2609.59 3816.65 2618.4 3834.32 2621.51 3845.79ZM2671.03 3821.03C2651.13 3829.03 2632.12 3817.2 2629.76 3799.01C2643.71 3779.97 2671.63 3800.12 2671.03 3821.03ZM2618.76 3801.77C2617.11 3824.05 2644.51 3831.4 2665.52 3837.53C2656.08 3843.69 2649.89 3853.11 2632.51 3851.29C2629.12 3829.91 2620.96 3813.32 2599.49 3810.03C2598.75 3815.69 2587.31 3810.68 2588.49 3818.28C2583.48 3848.04 2609.68 3846.61 2618.76 3862.29C2597.63 3890.91 2563.16 3860.69 2560.99 3840.28C2551.49 3750.81 2510.47 3686.72 2478.44 3633.95C2486.76 3626.65 2495.33 3619.67 2505.96 3614.69C2525.29 3635.08 2549.64 3670.19 2588.49 3694.48C2641.77 3727.79 2732.51 3751.45 2679.28 3815.52C2680.63 3778.24 2621.12 3769.8 2618.76 3801.77ZM2423.43 3631.2C2441.44 3594.11 2477.15 3560.33 2525.21 3562.41C2527.36 3563.03 2528.4 3564.73 2527.96 3567.92C2499.73 3595.63 2472.97 3624.81 2423.43 3631.2ZM2503.2 3532.16C2506.84 3532.19 2505.71 3536.97 2508.71 3537.65C2467.36 3558.65 2429.72 3583.39 2404.16 3620.19C2398.15 3564.09 2457.97 3536.89 2503.2 3532.16ZM2472.95 3512.89C2472.64 3516.25 2472.12 3519.41 2467.44 3518.4C2459.27 3526.39 2443.59 3532.29 2431.68 3540.41C2420.07 3548.31 2408.79 3564.79 2401.41 3559.67C2409.64 3528.47 2433.65 3513.07 2472.95 3512.89ZM2439.93 3501.89C2423.07 3502.44 2417.37 3514.16 2404.16 3518.4C2403.64 3502.59 2430.83 3490.37 2439.93 3501.89ZM2627 3653.21C2599.31 3640.64 2563.19 3602.67 2547.23 3576.17C2543.61 3570.2 2547.59 3563.33 2544.47 3556.92C2538.61 3544.76 2515.95 3539.95 2519.72 3521.15C2493.23 3510.07 2470 3495.68 2445.43 3482.64C2419.21 3477.68 2389.97 3487.51 2384.91 3515.65C2383.51 3523.39 2390.27 3530.23 2390.41 3540.41C2390.52 3548.44 2382.63 3556.56 2382.16 3565.17C2382.05 3566.93 2384 3613.61 2384.91 3617.44C2390.11 3639.2 2415.47 3649.63 2428.92 3655.96C2444.31 3695.21 2474.63 3718.05 2478.44 3763.25C2483.73 3825.61 2455.95 3884 2483.95 3931.07C2514.65 3982.65 2584.31 4007.72 2657.27 3999.85C2764.79 3988.27 2866.77 3828.43 2770.07 3727.49C2731.08 3686.8 2679.31 3676.95 2627 3653.21Z" fill="#E2E2E2"/>
<path d="M2589.32 904.681C2582.4 897.348 2597.15 892.401 2596.07 882.161C2611.89 887.721 2624.76 896.641 2638.91 904.094C2627.44 910.214 2607.71 900.468 2589.32 904.681ZM2514.21 813.241C2552.92 801.414 2581.95 781.12 2618.67 767.587C2619.75 806.387 2604.09 830.641 2591.65 857.641C2566.31 842.321 2534.99 833.814 2514.21 813.241ZM2566.99 900.667C2538.35 899.961 2516.19 891.827 2489.03 889.387C2479.93 871.227 2470.8 853.094 2463.17 833.227C2511.87 814.387 2543.88 859.361 2581.6 872.107C2579.81 884.334 2572.63 891.827 2566.99 900.667ZM2517.65 986.721C2512.57 958.027 2503.71 933.681 2495.8 908.241C2518.03 909.414 2536.77 914.574 2557.12 917.881C2544 940.854 2537.45 969.561 2517.65 986.721ZM2382.49 863.494C2400.91 852.881 2423.99 846.361 2447.07 839.827C2453.71 851.961 2458.29 866.428 2466.13 877.148C2445.96 887.121 2406.25 869.054 2382.49 863.494ZM2450.33 806.52C2455.63 807.347 2457.63 811.961 2464.43 811.081C2466.05 822.361 2445.59 817.494 2450.33 806.52ZM2605.93 864.961C2619.71 836.481 2650.53 787.521 2625.79 750.561C2573.4 752.587 2534.51 807.107 2486.03 804.12C2465.67 802.867 2455.31 777.214 2429.83 788.601C2422.56 801.401 2435.13 812.987 2437.72 823.92C2411.93 837.68 2362.48 844.081 2360.91 870.467C2390.24 892.094 2439.47 890.921 2476.23 904.041C2492.44 937.694 2495.08 986.921 2514.2 1017.29C2549.81 996.747 2552.47 947.401 2579.27 919.148C2612.64 917.974 2647.23 929.281 2676.08 923.641C2670.64 883.534 2625.73 888.601 2605.93 864.961Z" fill="#E2E2E2"/>
<path d="M2498.07 2012.41C2482.64 1993.95 2467.71 1993.07 2452.87 1996.13C2443.12 2004.83 2437.71 2013.43 2432.16 2022C2357.21 1964.27 2338.01 2061.29 2358.51 2103.8C2228.16 1990.89 2248.92 2296.61 2345.6 2201.45C2327 2193.77 2320.55 2213.12 2304.81 2204.52C2277.11 2189.33 2273.73 2116.52 2292.28 2101.72C2326.61 2074.33 2365.6 2143.33 2391.21 2161.29C2400.65 2128.6 2343.05 2052.51 2375.83 2025.49C2391.85 2012.28 2411.99 2029.39 2432.69 2041.45C2431.83 2058.85 2443.28 2108.19 2473.08 2094.84C2493.25 2067.04 2432.35 2041.45 2459.17 2013.48C2486.91 2004.96 2504.52 2055.01 2520.89 2064.33C2532.44 2034.05 2510.64 2003.75 2512.56 1973.11C2513.29 1961.29 2517.91 1948 2525.16 1935.79C2534.08 1929.64 2543.65 1947.27 2552.39 1935.04C2509.85 1880.52 2486.51 1982.93 2498.07 2012.41Z" fill="#E2E2E2"/>
<path d="M2387.43 4589.56C2296.17 4573.6 2243.71 4662.16 2247.12 4746.37C2253.62 4752.35 2254.03 4762.88 2260.88 4771.13C2286.93 4802.52 2386.91 4842.8 2425.95 4809.65C2367.71 4804.01 2283.68 4795.56 2266.38 4746.37C2241.51 4675.75 2322.15 4594.21 2384.68 4606.07C2428.95 4614.45 2445.54 4667.2 2423.19 4699.6C2409.6 4719.31 2368.11 4750.23 2354.41 4713.36C2360.36 4698.36 2381.79 4724.61 2381.92 4702.36C2376.67 4692.51 2358.89 4688.24 2346.16 4694.11C2335.63 4701.61 2335.35 4727.47 2343.41 4738.12C2401.84 4764.51 2461.27 4707.36 2450.71 4650.08C2445.59 4622.32 2413.32 4594.09 2387.43 4589.56Z" fill="#E2E2E2"/>
<path d="M2397.13 2739.52C2319.28 2684.8 2233.17 2756.96 2234.83 2827.55C2235.48 2855.83 2252.97 2888.03 2278.84 2893.57C2332.87 2905.19 2379.64 2854.32 2353.12 2811.04C2336.59 2805.6 2305.8 2804.52 2311.85 2830.31C2325.8 2842.73 2330.92 2815.12 2344.87 2827.55C2338.97 2894.45 2252.09 2889.35 2251.33 2824.8C2250.89 2788.4 2289.73 2738.49 2331.11 2736.76C2383.41 2734.56 2432.11 2784.47 2430.15 2835.8C2427.4 2907.8 2337.6 2960.99 2259.59 2951.35C2172.76 2940.63 2111.27 2863.71 2094.52 2786.28C2090.75 2768.84 2095.87 2743.01 2078 2725.76C2064.8 2853.91 2155.89 2957.55 2262.33 2967.85C2351.83 2976.55 2447.65 2914.84 2446.65 2830.31C2446.24 2794.4 2419.92 2755.52 2397.13 2739.52Z" fill="#E2E2E2"/>
<path d="M1940.25 1538.71C1878.03 1534 1826.39 1501.01 1775.19 1461.67C1697.05 1401.64 1659.64 1379.57 1610.09 1318.61C1597.72 1303.37 1584.65 1286.67 1582.61 1280.09C1570.59 1242.13 1589.71 1189.83 1618.37 1170.05C1662.48 1139.6 1732.75 1161.47 1783.41 1178.31C1746.11 1194.89 1705.17 1234.76 1720.13 1285.6C1770.84 1263.35 1825.32 1205.65 1898.99 1233.33C1848.59 1258.17 1789.31 1288.65 1780.67 1346.12C1803.83 1351.6 1831.48 1332.23 1860.45 1321.36C1906.89 1303.97 1972.33 1283.79 2020.04 1315.87C1971.51 1340.73 1912.61 1355.15 1893.49 1409.4C1923.2 1415.56 1959.05 1391.11 2000.79 1387.39C2026.09 1385.13 2050.52 1388.73 2077.79 1390.15C2132.64 1486.55 2036.73 1546 1940.25 1538.71ZM1846.69 1205.81C1807.49 1221.64 1766.41 1235.59 1733.92 1258.09C1744.99 1206.72 1801.91 1169.51 1846.69 1205.81ZM1973.24 1280.09C1907.41 1284.88 1853.55 1301.61 1805.43 1324.12C1835.69 1274.24 1920.04 1221.08 1973.24 1280.09ZM2064.03 1373.64C2016.47 1364.69 1964.72 1375.09 1929.25 1387.39C1955.12 1362.83 1995.51 1338.12 2033.77 1335.12C2048.6 1341.83 2064.2 1360.95 2064.03 1373.64ZM1901.75 1216.83C1828.23 1174.29 1746.52 1130.16 1656.89 1142.55C1604.76 1149.75 1548.23 1199.05 1566.08 1277.35C1569.47 1292.23 1583.85 1313.72 1596.37 1329.61C1646.16 1393.05 1684.63 1414.57 1764.16 1475.43C1816.73 1515.65 1865.79 1542.03 1918.25 1552.45C2035.83 1575.81 2144.92 1505.33 2099.8 1392.89C2067.49 1312.43 1982.4 1263.53 1901.75 1216.83Z" fill="#E2E2E2"/>
<path d="M1804.01 4192.91C1814.13 4190.16 1822.7 4183.85 1835.72 4188.01C1855.61 4207.99 1825.88 4235.13 1804.26 4228.67C1797.46 4219.56 1794.86 4208.69 1804.01 4192.91ZM1718.56 4285.8C1728.25 4305.39 1703.54 4324.63 1682.58 4315.69C1678.38 4306.2 1675 4296.37 1681.29 4282.48C1693.88 4283.96 1703.14 4277.56 1718.56 4285.8ZM1564.28 4285.25C1537.96 4330.67 1500.49 4243.51 1549.66 4255.52C1563.88 4259 1570.52 4274.48 1564.28 4285.25ZM1592.12 4100.51C1587.77 4111.51 1574.68 4125.12 1576.62 4123.89C1533.04 4150.77 1547.8 4041.77 1591.28 4073.41C1601.25 4080.67 1597.25 4087.48 1592.12 4100.51ZM1708.33 3990.44C1692.2 3968.59 1720.34 3940.25 1737.24 3948.75C1759.88 3960.16 1741.58 4007.12 1708.33 3990.44ZM2103.5 4026.88C2082.72 4009.81 2053.52 4015.61 2028.49 4014.11C1976.89 4011.03 1924.2 4012.67 1876.18 4023.28C1835.66 4032.23 1770.28 4063.73 1744 4004.99C1771.06 3986.44 1768.45 3946.16 1746.01 3934.51C1709.85 3915.71 1669.16 3968.13 1694.45 4002.61C1743.53 4004.44 1733.52 4049.09 1783.5 4053.8C1728.29 4079.76 1690.06 4146.05 1610.41 4113.91C1613.8 4092 1618.81 4071.79 1605.16 4061.25C1553.14 4021.16 1505.01 4116.72 1549.44 4139.55C1568.9 4149.53 1578.85 4140.64 1598.05 4129.67C1623.65 4137.05 1646.41 4137.6 1669 4137.81C1636.49 4174.23 1603.92 4210.53 1571.18 4246.47C1512.65 4208.8 1484.6 4298.03 1538.02 4313.17C1561.86 4319.92 1595.52 4293.16 1579.76 4261.85C1612.52 4225.99 1645.12 4189.79 1677.58 4153.2C1679.96 4188.08 1676.13 4225.56 1685.54 4257.48C1657.29 4273.64 1651.98 4317.23 1676.36 4330.99C1706.69 4348.08 1751.16 4314.4 1733.94 4277.23C1725.69 4272.55 1713.41 4262.09 1703.38 4264.75C1699.46 4226.13 1681.33 4172.32 1704.29 4131.41C1722.37 4099.21 1761.88 4093.13 1787.46 4073.24C1779.96 4110.85 1788.62 4141.67 1801.09 4170.91C1776.5 4193.15 1773.94 4232.19 1798.04 4243.95C1846.45 4267.59 1894.88 4171.09 1819.49 4169.51C1803.5 4139.65 1791.44 4108.15 1812.57 4062.68C1895.41 4017.16 2003.92 4032.6 2103.5 4026.88Z" fill="#E2E2E2"/>
<path d="M1953.52 699.254C1956.32 675.347 1946.69 663.894 1934.27 655.241C1921.25 654.134 1911.29 656.121 1901.25 657.987C1891.64 563.867 1807.99 616.641 1791.2 660.734C1783.59 488.467 1575.84 713.721 1711.41 718.507C1704.21 699.721 1685.72 708.334 1681.16 691.001C1673.12 660.441 1723.69 607.921 1747.19 611.214C1790.68 617.321 1767.37 693.068 1771.95 724.014C1802.17 708.388 1817.83 614.241 1859.97 619.467C1880.59 622.027 1882.01 648.414 1887.49 671.748C1874.25 683.081 1846.31 725.307 1876.48 737.774C1910.55 733.307 1887.24 671.494 1926.01 671.748C1951.27 686.014 1927.03 733.227 1931.51 751.521C1961.44 739.094 1968.45 702.414 1992.04 682.748C2001.11 675.148 2013.93 669.374 2027.8 666.241C2038.39 668.494 2032.17 687.561 2047.05 685.494C2057.4 617.134 1966.97 670.587 1953.52 699.254Z" fill="#E2E2E2"/>
<path d="M1861.19 162.667C1922.19 157.307 1988.32 110.761 2012.51 66.3872C2025.81 41.9605 2022.97 19.1341 2010.37 0.000725876H1992.35C2000.8 7.80073 2006.19 16.3472 2007 25.1205C2008.89 45.7472 1990.08 71.494 1979.49 82.894C1953.91 110.401 1901.57 142.507 1855.69 146.161C1777.09 152.441 1729 75.7605 1723.64 5.85385C1723.49 3.93385 1723.37 1.97406 1723.27 0.000725876H1708.07C1715.53 86.9474 1765.91 171.067 1861.19 162.667Z" fill="#E2E2E2"/>
<path d="M1803.41 8.61386C1805.23 22.2272 1834.31 51.5603 1858.44 27.867C1852.77 13.3737 1820.8 25.1468 1819.92 5.85344C1820.28 3.81344 1820.77 1.88032 1821.33 0.000319532H1803.41C1803.07 2.84032 1803.03 5.72053 1803.41 8.61386Z" fill="#E2E2E2"/>
<path d="M1806.17 5171.37C1834.37 5170.13 1843.07 5191.97 1869.44 5182.37C1845.27 5161.11 1810.45 5148.43 1781.41 5160.37C1726.56 5182.93 1701.69 5259.16 1708.07 5333.33H1723.27C1719.95 5266.19 1745.99 5174.04 1806.17 5171.37Z" fill="#E2E2E2"/>
<path d="M1841.93 5286.92C1828.29 5292.65 1806.13 5311.79 1803.41 5333.33H1821.33C1838.81 5275.71 1951.51 5295.68 1992.35 5333.33H2010.37C1980.72 5288.29 1896.93 5263.73 1841.93 5286.92Z" fill="#E2E2E2"/>
<path d="M1831.27 3523.01C1824.68 3515.44 1824.44 3504.8 1825.27 3498.37C1829.77 3462.96 1875.79 3447.31 1892 3424.37C1876.85 3406.95 1864.29 3429.12 1852 3432.89C1834.51 3438.24 1806.11 3434.09 1790.64 3419.28C1768.05 3397.63 1788.69 3375.73 1792.45 3346.04C1749.25 3355.15 1707.77 3374.67 1656.25 3332.85C1649.11 3304.37 1691.27 3300.12 1697.65 3284.68C1679.84 3272.83 1647.07 3273.23 1623.23 3251.52C1603.77 3233.77 1591.8 3204.97 1602.64 3185.89C1610.63 3171.81 1620.93 3180.85 1624.76 3164.53C1545.32 3154.49 1590.76 3281.13 1659.25 3290.96C1642.13 3302.85 1635.76 3323.27 1639.29 3337.6C1679.96 3382.79 1728.12 3376.35 1767.11 3371.88C1746.81 3409.12 1791.36 3452.21 1831.48 3452.01C1748.15 3554.28 1928.53 3588.08 1963.35 3523.08C1923.25 3524.89 1867.25 3564.44 1831.27 3523.01Z" fill="#E2E2E2"/>
<path d="M1742.4 2165.85C1730.49 2157.73 1714.81 2151.83 1706.64 2143.84C1701.96 2144.87 1701.44 2141.69 1701.13 2138.35C1740.43 2138.51 1764.44 2153.91 1772.67 2185.11C1765.29 2190.23 1754.01 2173.75 1742.4 2165.85ZM1769.91 2245.64C1744.36 2208.83 1706.72 2184.09 1665.37 2163.11C1668.37 2162.41 1667.24 2157.63 1670.87 2157.6C1716.11 2162.33 1775.93 2189.53 1769.91 2245.64ZM1646.11 2193.36C1645.67 2190.17 1646.72 2188.47 1648.87 2187.87C1696.92 2185.77 1732.64 2219.56 1750.65 2256.64C1701.11 2250.25 1674.33 2221.07 1646.11 2193.36ZM1503.05 2446.47C1502.45 2425.56 1530.37 2405.43 1544.32 2424.45C1541.96 2442.64 1522.95 2454.47 1503.05 2446.47ZM1552.57 2471.23C1555.68 2459.76 1564.48 2442.09 1577.33 2449.21C1572.47 2459.92 1566.41 2469.47 1552.57 2471.23ZM1585.59 2443.72C1586.77 2436.12 1575.32 2441.13 1574.59 2435.47C1553.12 2438.76 1544.95 2455.36 1541.57 2476.73C1524.19 2478.55 1517.99 2469.13 1508.56 2462.97C1529.57 2456.84 1556.97 2449.49 1555.32 2427.21C1552.96 2395.24 1493.45 2403.69 1494.8 2440.96C1441.56 2376.89 1532.29 2353.23 1585.59 2319.92C1624.43 2295.63 1648.79 2260.52 1668.12 2240.13C1678.75 2245.11 1687.32 2252.11 1695.63 2259.39C1663.61 2312.16 1622.59 2376.25 1613.09 2465.72C1610.92 2486.13 1576.45 2516.35 1555.32 2487.73C1564.4 2472.05 1590.6 2473.48 1585.59 2443.72ZM1679.12 2383.19C1671.2 2450.48 1706.05 2512.16 1668.12 2559.27C1581.49 2666.77 1362.61 2596.43 1382 2435.47C1387.95 2386.05 1421.81 2352.88 1456.28 2330.92C1495.84 2305.75 1548 2307.59 1585.59 2275.89C1604.81 2259.67 1613.89 2232.92 1637.85 2215.37C1648.95 2218.04 1653.35 2227.4 1659.87 2234.63C1636.92 2258.87 1613.87 2292.16 1577.33 2314.41C1541.11 2336.51 1458.65 2350.17 1470.04 2418.96C1471.91 2430.27 1499.84 2471.45 1511.31 2479.48C1516.97 2483.44 1529.47 2483.08 1538.81 2487.73C1556.37 2496.45 1560.93 2509.05 1574.59 2509.75C1615.93 2511.84 1617.95 2473.68 1624.11 2435.47C1635.36 2365.56 1678.8 2311.91 1709.39 2264.89C1714.09 2269.35 1719.4 2273.23 1728.64 2273.15C1714.89 2315.81 1684.6 2336.64 1679.12 2383.19ZM1769.91 2143.84C1756.71 2139.61 1751.01 2127.89 1734.15 2127.33C1743.25 2115.81 1770.44 2128.03 1769.91 2143.84ZM1783.67 2165.85C1783.8 2155.67 1790.57 2148.83 1789.17 2141.09C1784.11 2112.95 1754.87 2103.13 1728.64 2108.08C1704.08 2121.12 1680.85 2135.51 1654.36 2146.6C1658.13 2165.39 1635.47 2170.2 1629.6 2182.36C1626.49 2188.77 1630.45 2195.65 1626.85 2201.61C1610.89 2228.11 1574.77 2266.08 1547.07 2278.65C1494.77 2302.39 1443 2312.24 1404.01 2352.93C1307.31 2453.87 1409.29 2613.71 1516.81 2625.29C1589.77 2633.16 1659.43 2608.09 1690.13 2556.51C1718.13 2509.44 1690.35 2451.07 1695.63 2388.69C1699.45 2343.49 1729.77 2320.65 1745.15 2281.4C1758.6 2275.07 1783.97 2264.64 1789.17 2242.88C1790.08 2239.05 1792.03 2192.37 1791.92 2190.61C1791.45 2182 1783.56 2173.88 1783.67 2165.85Z" fill="#E2E2E2"/>
<path d="M1621.76 4907.69C1623.77 4884.03 1621.65 4856.24 1632.76 4841.67C1654.93 4872.67 1684.52 4896.31 1707.04 4926.95C1680.2 4918.95 1652.29 4912.01 1621.76 4907.69ZM1583.24 4759.13C1583.77 4748.12 1629.96 4718.03 1632.76 4704.11C1631.17 4738.28 1621.11 4763.97 1619.01 4797.65C1607.71 4785.45 1582.59 4773.29 1583.24 4759.13ZM1605.25 4904.95C1588.95 4906.59 1580.75 4900.09 1563.99 4902.19C1555.84 4868.16 1548.85 4832.95 1539.23 4800.4C1549.93 4790.91 1558.43 4779.27 1572.24 4772.89C1580.21 4793.83 1608.53 4801.28 1613.51 4825.16C1618.47 4848.91 1601.32 4873.16 1605.25 4904.95ZM1591.49 5014.99C1585.03 4982.03 1573.53 4954.08 1569.49 4918.69C1583.33 4916.77 1588.67 4923.37 1602.51 4921.45C1598.27 4952.04 1598.35 4987 1591.49 5014.99ZM1418.17 4869.17C1459.72 4855.69 1491.64 4832.59 1525.47 4811.4C1531.08 4841.53 1541.07 4867.33 1544.73 4899.44C1499.17 4892.72 1447.25 4892.37 1418.17 4869.17ZM1508.96 4704.11C1524.35 4724.49 1546.96 4737.64 1558.48 4761.88C1545.72 4764.72 1544.07 4778.64 1530.97 4781.15C1527.97 4752.95 1507.76 4727.33 1508.96 4704.11ZM1641.01 4673.84C1611.8 4690.49 1599.64 4724.16 1574.99 4745.37C1540.19 4726.75 1523.49 4676.16 1481.45 4673.84C1480.19 4714.71 1510.43 4747.47 1517.21 4789.39C1503.93 4806.72 1486.81 4819.99 1462.2 4833.41C1446.89 4841.75 1398.61 4850 1396.17 4866.43C1392.95 4887.93 1437.6 4899.93 1459.44 4904.95C1491.2 4912.2 1518.87 4911.93 1547.48 4915.95C1566.63 4958.23 1566.19 5020.13 1591.49 5056.25C1627.29 5038.87 1609.13 4967.53 1619.01 4924.2C1663.41 4924.8 1704.68 4954.55 1740.05 4946.21C1713.48 4893.91 1665.04 4863.51 1632.76 4816.91C1631.61 4769.45 1666.19 4709.92 1641.01 4673.84Z" fill="#E2E2E2"/>
<path d="M1275.2 1939.89C1231.35 1968.97 1051.09 2042.05 989.082 1983.92C969.254 1965.29 959.534 1924.19 945.067 1890.37C903.695 1793.6 843.002 1713.45 813.014 1612.52C982.787 1632.93 1137.56 1571.49 1217.43 1474.96C1246.4 1524.95 1272.25 1586.41 1288.96 1675.79C1306.79 1771.23 1351.47 1889.33 1275.2 1939.89ZM895.548 1832.6C864.215 1925.95 764.707 1783.96 837.775 1750.07C864.067 1770.55 879.534 1801.85 895.548 1832.6ZM876.295 1939.89C789.882 1944.72 724.947 1799.87 735.974 1706.05C738.242 1686.85 745.055 1656.15 771.748 1656.53C807.92 1657.05 826.882 1705.67 846.028 1736.32C841.575 1732.19 825.722 1732.19 821.268 1736.32C748.254 1793.68 846.468 1940.4 909.307 1854.61C928.48 1889 910.734 1937.97 876.295 1939.89ZM793.748 1574C787.227 1533.87 866.522 1494.77 917.56 1472.21C986.882 1441.56 1039.48 1424.77 1101.88 1419.93C1140.04 1416.96 1199.06 1417.71 1206.43 1444.69C1213.99 1472.35 1190.8 1483.55 1173.42 1496.97C1043.31 1462.88 915.882 1520.08 868.04 1604.27C839.014 1600.16 798.067 1600.57 793.748 1574ZM1239.44 1474.96C1230.31 1456.59 1222.81 1434.47 1214.68 1425.44C1194.95 1403.57 1138.83 1400.19 1099.14 1403.43C1003.08 1411.27 883.522 1455.81 821.268 1505.23C804.014 1518.92 776.614 1545.88 777.254 1571.25C777.988 1601.76 807.374 1621.29 810.254 1656.53C764.268 1620.69 726.4 1646.96 719.468 1703.31C710.614 1775.36 743.962 1885.71 799.254 1928.89C853.534 1971.27 914.307 1962.27 934.067 1906.89C960.28 1969.89 969.495 2011.95 1041.36 2019.68C1117.17 2027.85 1220.23 1993.11 1280.71 1956.41C1346.02 1916.79 1340.32 1840.67 1321.97 1755.57C1299.03 1649.21 1281.23 1558.95 1239.44 1474.96Z" fill="#E2E2E2"/>
<path d="M1231.87 696.227C1140.61 680.267 1088.15 768.827 1091.56 853.041C1098.05 859.014 1098.47 869.547 1105.32 877.801C1131.37 909.187 1231.35 949.467 1270.39 916.32C1212.15 910.68 1128.12 902.227 1110.83 853.041C1085.95 782.414 1166.59 700.881 1229.12 712.734C1273.39 721.121 1289.97 773.867 1267.64 806.267C1254.04 825.974 1212.56 856.894 1198.85 820.027C1204.8 805.027 1226.23 831.281 1226.37 809.027C1221.11 799.174 1203.35 794.907 1190.6 800.774C1180.07 808.281 1179.79 834.134 1187.85 844.787C1246.28 871.174 1305.71 814.028 1295.15 756.748C1290.03 728.988 1257.76 700.761 1231.87 696.227Z" fill="#E2E2E2"/>
<path d="M1206.43 1785.84C1193.55 1785.87 1189.77 1776.81 1187.16 1766.57C1194.87 1755.93 1205.79 1748.53 1206.43 1730.81C1218.53 1746.72 1219.27 1770.27 1206.43 1785.84ZM1184.41 1722.56C1195.69 1726.08 1186.31 1742.95 1184.41 1750.07C1179.03 1746.25 1181.05 1726.72 1184.41 1722.56ZM1239.44 1752.83C1237.71 1735.85 1249.25 1697 1231.19 1684.04C1208.07 1680.2 1205.84 1697.2 1206.43 1717.05C1198.85 1710.87 1195.85 1700.11 1178.91 1703.31C1130.19 1746.57 1207 1851.07 1233.93 1772.08C1266.89 1783.23 1295.92 1756.51 1288.96 1728.07C1268.35 1730.19 1265.47 1773.81 1239.44 1752.83Z" fill="#E2E2E2"/>
<path d="M1045.36 4492.09C1047.67 4518.04 1087.92 4533.31 1108.64 4508.6C1096.15 4496.05 1069.14 4512.04 1061.87 4492.09C1065.83 4445.19 1178.68 4422.75 1180.16 4467.33C1181.81 4517.44 1121.35 4607.2 1070.12 4604.89C1026.45 4602.92 983.629 4527.64 979.335 4464.59C972.534 4364.97 1047.09 4291.45 1130.64 4343.53C1127.79 4322.03 1107.45 4313.25 1092.14 4310.52C1001.95 4294.55 959.002 4384.53 962.829 4464.59C966.401 4539.53 1024.53 4639.72 1092.14 4618.65C1132.03 4606.21 1205.43 4518.43 1196.67 4461.84C1186.36 4395.01 1040.16 4433.77 1045.36 4492.09Z" fill="#E2E2E2"/>
<path d="M1156.91 1744.57C1155.75 1738.39 1142.29 1744.49 1140.4 1739.07C1132.93 1710.76 1111.15 1682.15 1115.64 1651.03C1127.33 1663.19 1123.33 1691 1145.89 1692.29C1139.6 1662.84 1137.45 1629.21 1101.88 1629.03C1084.68 1676.37 1118.88 1717.8 1129.39 1755.57C1123.53 1759.81 1119.16 1765.51 1112.88 1769.33L1114.95 1772.41C1115.17 1772.31 1115.4 1772.19 1115.64 1772.08C1112.11 1773.73 1132.39 1782.01 1137.64 1777.59C1143.36 1797.53 1136.35 1830.24 1156.91 1835.36C1166.97 1817.89 1152.91 1786.96 1151.4 1763.83C1154.15 1758 1163.59 1751.56 1156.91 1744.57Z" fill="#E2E2E2"/>
<path d="M1114.95 1772.41L1112.88 1769.33C1112.88 1752.99 1102.43 1761.85 1093.63 1763.83C1084.57 1731.28 1047.19 1698.84 1057.87 1664.79C1071.87 1681.04 1070.55 1712.6 1088.12 1725.31C1109.72 1693.68 1044.08 1607.32 1035.85 1667.53C1030.76 1704.92 1074.81 1746.6 1082.63 1777.59C1078.96 1782.17 1075.33 1786.8 1077.12 1796.84C1101.72 1788.56 1084.99 1833.63 1104.63 1838.11C1126.55 1820.05 1089.81 1785.2 1114.95 1772.41Z" fill="#E2E2E2"/>
<path d="M1039.08 3295.13C1041.75 3273.04 1048.16 3254.68 1052.83 3234.6C1074.87 3249.24 1103.07 3257.71 1118.85 3278.63C1089.89 3281.76 1064.99 3288.96 1039.08 3295.13ZM1019.81 3193.33C1026.41 3177.93 1036.19 3165.68 1044.57 3152.07C1049.92 3163.92 1038.85 3182.96 1041.83 3201.59C1034.04 3208 1030.11 3192.95 1019.81 3193.33ZM1019.81 3300.63C1001.08 3308.47 982.373 3316.36 962.04 3322.64C946.533 3272.79 993.548 3243.88 1008.81 3207.09C1020.89 3209.71 1027.88 3217.39 1036.32 3223.6C1033.68 3252.13 1024.08 3273.69 1019.81 3300.63ZM986.801 3405.17C977.453 3386.08 972.494 3362.61 967.548 3339.15C980.093 3333.33 994.84 3329.73 1006.07 3322.64C1014.64 3343.44 993.961 3381.84 986.801 3405.17ZM945.533 3270.37C936.347 3230.95 918.054 3200.63 907.028 3163.07C945.813 3164.61 968.946 3181.87 995.054 3196.09C978.054 3220.35 967.468 3251.03 945.533 3270.37ZM934.533 3333.64C935.721 3328.41 940.453 3326.73 940.04 3319.89C951.4 3319.04 945.147 3339.12 934.533 3333.64ZM1055.59 3212.6C1056.65 3179.23 1070.27 3145.47 1066.59 3116.31C1026.2 3119.03 1028.24 3164.17 1003.31 3182.33C975.828 3166.68 929.054 3132.61 890.521 3154.83C889.001 3207.23 940.775 3249.71 934.533 3297.88C931.92 3318.09 905.613 3326.71 915.28 3352.91C927.548 3361.01 939.946 3349.24 951.04 3347.4C963.04 3374.05 966.093 3423.83 992.306 3427.19C1015.85 3399.37 1018 3350.17 1033.57 3314.39C1068.24 3300.47 1117.53 3301.15 1149.12 3284.12C1131.01 3247.2 1081.96 3241.23 1055.59 3212.6Z" fill="#E2E2E2"/>
<path d="M1041.36 1816.09C1021 1806.31 1027.65 1779.51 1038.6 1763.83C1060.45 1768.75 1057.06 1806.64 1041.36 1816.09ZM1038.6 1747.32C995.852 1750.32 1022.21 1817.89 989.078 1835.36C959.998 1815.83 937.637 1774.95 945.064 1728.07C964.598 1729.63 956.117 1759.17 975.332 1761.08C987.704 1730.6 944.132 1689.71 925.81 1722.56C924.81 1780.12 946.572 1852.69 1000.09 1851.87C1011.42 1846.69 1013.37 1832.13 1022.09 1824.35C1027 1831.37 1034.69 1835.6 1046.85 1835.36C1079.7 1817.83 1080.04 1744.4 1038.6 1747.32Z" fill="#E2E2E2"/>
<path d="M997.026 3756.97C1006.29 3744.04 1019.58 3724.28 1010.77 3707.45C985.106 3658.25 892.091 3739.93 878.719 3759.72C853.493 3679.96 758.945 3748.16 752.172 3800.99C706.172 3798.09 694.731 3829.73 675.145 3853.25C654.398 3822.95 638.693 3780.21 595.36 3778.97C493.812 3776.09 476.838 4032.57 551.345 4087.11C550.546 4067.35 538 4049.52 532.08 4026.57C526.36 4004.35 520.8 3978.47 521.08 3949.55C521.626 3888.77 542.585 3793.69 595.36 3795.48C622.532 3796.39 662.106 3844.53 666.891 3878.01C670.079 3900.33 650.466 3932.08 680.638 3938.55C696.906 3929.6 692.359 3894.75 686.145 3878.01C699.026 3848.72 709.225 3816.75 752.172 3817.49C751.678 3838.16 750.626 3859.36 771.425 3858.76C794.133 3850.15 776.853 3817.19 771.425 3803.73C781.466 3771.41 807.305 3732.51 840.213 3737.71C891.88 3745.88 844.611 3811.49 856.719 3842.25C884.011 3838.4 875.785 3807.43 884.225 3787.23C898.945 3751.96 955.371 3699.85 994.266 3718.45C998.345 3749.11 969.038 3746.4 966.758 3770.72C993.251 3769.32 1009.42 3791.8 1030.04 3787.23C1027.97 3768.19 1007.5 3767.59 997.026 3756.97Z" fill="#E2E2E2"/>
<path d="M830.17 2596.72C814.73 2603.21 788.344 2626.88 791.652 2651.75C793.465 2665.36 822.545 2694.69 846.677 2671C841.01 2656.51 809.037 2668.28 808.158 2649C821.917 2571.23 990.385 2615.71 995.238 2668.25C997.132 2688.89 978.318 2714.64 967.718 2726.03C942.132 2753.53 889.81 2785.64 843.917 2789.31C765.318 2795.57 717.238 2718.91 711.864 2649C706.665 2581.48 732.45 2483.93 794.397 2481.17C822.598 2479.93 831.292 2501.79 857.677 2492.19C833.492 2470.92 798.692 2458.23 769.637 2470.17C650.492 2519.2 672.852 2821.39 849.424 2805.81C910.412 2800.44 976.557 2753.89 1000.73 2709.52C1045.36 2627.59 908.545 2563.68 830.17 2596.72Z" fill="#E2E2E2"/>
<path d="M893.866 307.027C895.346 325.867 858.494 341.227 844.346 318.027C841.452 280.947 891.854 281.747 893.866 307.027ZM698.532 384.054C712.532 384.227 720.346 383.094 723.294 395.054C736.16 447.241 629.866 419.814 670.919 389.641C670.027 390.561 687 383.921 698.532 384.054ZM538.972 364.801C531.52 414.867 464.96 347.241 516.96 340.041C529.294 338.334 541.119 350.321 538.972 364.801ZM563.732 232.748C548.494 233.321 540.679 226.467 533.467 218.987C533.107 196.214 560.267 180.614 574.732 196.974C576.547 214.361 567.119 220.534 563.732 232.748ZM693.039 152.961C674.96 155.467 665.88 148.947 660.027 139.201C662.199 116.761 698.559 99.4806 709.547 125.454C708.467 139.067 699.387 144.627 693.039 152.961ZM816.839 194.227C766.759 196.627 742.146 173.534 720.547 147.454C747.559 77.0539 639.907 85.4541 643.52 139.201C645.306 165.947 682.414 178.321 712.294 163.961C734.654 186.547 759.919 206.228 797.574 213.481C769.494 229.668 748.934 263.948 712.294 268.508C665.747 274.308 622.774 237.201 588.494 218.987C594.732 210.707 589.706 195.388 588.494 185.974C560.574 155.988 512.586 184.441 516.96 218.987C520.479 246.747 562.854 258.308 588.494 238.241C614.494 259.014 650.639 269.641 682.027 285.014C635.892 301.241 590.054 317.747 544.467 334.534C521.44 308.121 483.946 329.174 481.199 353.787C475.039 408.987 568.24 416.707 555.479 348.294C601.119 331.561 647.039 315.108 693.039 298.774C684.694 319.761 676.612 341.054 673.774 367.548C656.36 381.174 644.372 387.028 646.267 408.814C650.612 458.588 757.279 450.107 739.8 386.801C735.214 370.187 714.6 367.188 693.039 362.041C693.36 276.161 769.187 265.814 814.08 224.494C799.559 272.547 844.679 280.148 827.839 326.281C850.199 362.734 914.119 344.854 910.372 304.267C908.066 279.094 871.747 261.468 844.346 279.508C799.892 232.988 853.759 184.348 877.36 150.214C905.306 109.774 926.747 61.6006 943.387 12.6539C944.807 8.46727 946.49 4.25414 948.248 0.000807535H933.043C902.836 73.2675 874 147.921 816.839 194.227Z" fill="#E2E2E2"/>
<path d="M959.892 5271.71C950.374 5291.68 941.652 5312.45 933.043 5333.33H948.248C956.474 5313.45 966.439 5292.87 959.892 5271.71Z" fill="#E2E2E2"/>
<path d="M637.986 1128.12C641.638 1096.01 651.626 1070.21 657.239 1040.09C691.079 1061.27 722.999 1084.39 764.531 1097.87C735.451 1121.05 683.546 1121.41 637.986 1128.12ZM618.719 1130.88C601.971 1128.79 593.772 1135.28 577.451 1133.63C581.398 1101.85 564.251 1077.59 569.198 1053.84C574.186 1029.96 602.492 1022.51 610.466 1001.57C624.278 1007.96 632.784 1019.59 643.478 1029.08C633.852 1061.63 626.864 1096.84 618.719 1130.88ZM591.212 1243.67C584.359 1215.69 584.451 1180.72 580.212 1150.13C594.052 1152.05 599.386 1145.45 613.224 1147.39C609.186 1182.76 597.678 1210.72 591.212 1243.67ZM563.704 1026.33C561.611 992.654 551.546 966.96 549.944 932.8C552.758 946.72 598.944 976.814 599.466 987.814C600.132 1001.99 575.011 1014.15 563.704 1026.33ZM475.666 1155.64C498.198 1124.99 527.772 1101.36 549.944 1070.35C561.064 1084.93 558.944 1112.72 560.944 1136.37C530.412 1140.69 502.519 1147.63 475.666 1155.64ZM673.746 932.8C674.959 956.014 654.731 981.627 651.746 1009.83C638.638 1007.32 636.999 993.4 624.224 990.574C635.758 966.334 658.371 953.187 673.746 932.8ZM720.519 1062.09C695.891 1048.67 678.784 1035.41 665.492 1018.08C672.292 976.147 702.519 943.387 701.266 902.534C659.224 904.84 642.519 955.44 607.719 974.067C583.064 952.854 570.906 919.174 541.692 902.534C516.519 938.6 551.106 998.134 549.944 1045.59C517.678 1092.2 469.224 1122.6 442.652 1174.89C478.038 1183.23 519.304 1153.49 563.704 1152.88C573.584 1196.21 555.424 1267.55 591.212 1284.93C616.519 1248.81 616.079 1186.92 635.224 1144.63C663.838 1140.61 691.519 1140.89 723.266 1133.63C745.106 1128.63 789.758 1116.63 786.546 1095.11C784.091 1078.69 735.811 1070.44 720.519 1062.09Z" fill="#E2E2E2"/>
<path d="M517.106 4952.19C553.838 4928.4 598.319 4912.36 616.144 4869.65C625.917 4865.37 617.799 4879.01 624.398 4877.91C621.546 4920.53 552.599 4969.52 517.106 4952.19ZM550.118 4976.95C571.091 4956.65 603.638 4947.93 621.652 4924.68C624.212 4957.51 590.626 4978 550.118 4976.95ZM585.891 4990.71C597.171 4983.64 612.159 4980.31 618.905 4968.69C628.692 4984.6 598.132 4996.65 585.891 4990.71ZM497.852 4927.43C519.637 4891.45 553.144 4867.19 602.398 4858.65C582.198 4894.61 548.584 4931.09 497.852 4927.43ZM404.319 4641.32C414.466 4646.6 430.971 4657.63 426.319 4668.83C412.398 4666.24 406.492 4655.65 404.319 4641.32ZM354.799 4668.83C374.132 4660.24 394.079 4673.07 396.064 4690.84C380.906 4707.87 354.678 4691.36 354.799 4668.83ZM407.064 4688.08C408.412 4669.87 385.079 4655.16 360.292 4655.07C367.011 4645.28 374.386 4636.15 393.304 4638.56C395.784 4663.19 413.038 4687.89 437.332 4674.33C441.344 4645.55 420.932 4641.2 407.064 4630.31C416.278 4605.57 449.959 4616.91 459.332 4633.07C466.572 4645.52 462.026 4658.71 464.838 4677.08C475.038 4743.55 524.944 4814.05 547.371 4853.15C542.891 4864.24 528.558 4865.53 522.611 4875.16C503.852 4855.39 482.772 4833.04 453.838 4809.13C409.704 4772.71 295.891 4751.64 343.784 4674.33C344.692 4708.23 404.584 4721.65 407.064 4688.08ZM440.079 4842.15C401.144 4807.89 347.398 4809.44 308.026 4784.37C272.144 4761.53 229.918 4722.31 230.986 4657.83C231.572 4622.64 251.344 4582.96 272.251 4558.79C344.558 4475.12 535.212 4488.91 539.117 4622.05C540.079 4655.37 528.531 4686.55 528.117 4712.84C527.212 4768.88 565.117 4796.12 580.386 4842.15C572.186 4843.11 563.626 4843.75 561.132 4850.4C538.319 4812.93 487.171 4753.45 475.838 4685.33C469.678 4648.33 471.198 4600.49 423.572 4605.55C398.944 4608.16 400.626 4633.04 368.546 4633.07C320.398 4663.21 305.159 4730.35 357.546 4767.87C376.504 4781.45 405.359 4786.41 429.079 4800.88C467.864 4824.51 494.332 4861.19 511.611 4883.41C503.106 4886.83 496.838 4892.49 492.344 4899.92C462.304 4882.53 460.439 4860.03 440.079 4842.15ZM640.905 4875.16C639.117 4852.49 612.678 4844.55 596.891 4831.15C578.159 4797.11 559.171 4777.05 550.118 4740.36C541.546 4705.59 556.064 4667.37 555.626 4624.81C554.611 4528.71 467.731 4475.59 363.052 4490C285.359 4500.71 225.412 4569.19 217.239 4638.56C206.398 4730.61 267.746 4783.96 319.026 4809.13C346.212 4822.48 379.558 4824.57 407.064 4839.4C426.678 4849.96 468.746 4896.81 478.599 4913.68C481.584 4918.8 478.652 4927.79 481.344 4932.93C487.891 4945.4 508.117 4950.63 508.852 4971.45C550.838 4980.75 568.638 5018.08 610.652 5007.21C639.731 4999.68 635.758 4970.45 635.412 4946.69C635.026 4920.83 641.959 4888.59 640.905 4875.16Z" fill="#E2E2E2"/>
<path d="M530.917 2059.61C524.332 2052.04 524.091 2041.39 524.905 2034.97C529.424 1999.56 575.439 1983.91 591.652 1960.97C576.492 1943.53 563.944 1965.72 551.652 1969.48C534.144 1974.83 505.757 1970.69 490.277 1955.87C467.692 1934.21 488.344 1912.33 492.091 1882.64C448.905 1891.73 407.424 1911.27 355.891 1869.44C348.757 1840.97 390.905 1836.71 397.292 1821.28C379.492 1809.43 346.719 1809.83 322.879 1788.12C303.412 1770.36 291.451 1741.57 302.277 1722.49C310.265 1708.41 320.572 1717.45 324.412 1701.13C244.971 1691.09 290.412 1817.73 358.905 1827.56C341.784 1839.45 335.412 1859.87 338.932 1874.19C379.599 1919.39 427.772 1912.93 466.757 1908.47C446.451 1945.72 490.999 1988.81 531.117 1988.61C447.799 2090.88 628.171 2124.68 662.999 2059.68C622.905 2061.49 566.905 2101.03 530.917 2059.61Z" fill="#E2E2E2"/>
<path d="M471.161 3091.41C473.973 3067.51 464.347 3056.05 451.908 3047.39C438.893 3046.29 428.935 3048.27 418.893 3050.15C409.295 2956.03 325.628 3008.79 308.855 3052.89C301.227 2880.61 93.494 3105.88 229.067 3110.67C221.855 3091.88 203.373 3100.49 198.801 3083.16C190.775 3052.59 241.335 3000.07 264.828 3003.37C308.321 3009.48 285.028 3085.21 289.587 3116.17C319.828 3100.55 335.48 3006.4 377.628 3011.63C398.227 3014.19 399.668 3040.57 405.135 3063.89C391.908 3075.23 363.947 3117.47 394.135 3129.92C428.188 3125.47 404.893 3063.65 443.655 3063.89C468.908 3078.17 444.668 3125.39 449.161 3143.68C479.093 3131.24 486.108 3094.57 509.68 3074.91C518.76 3067.31 531.575 3061.53 545.441 3058.4C556.04 3060.65 549.813 3079.72 564.707 3077.65C575.055 3009.29 484.613 3062.75 471.161 3091.41Z" fill="#E2E2E2"/>
<path d="M227.492 5254.52C245.171 5256.75 258.746 5235.97 271.504 5224.25C284.731 5212.07 304.986 5199.69 307.266 5180.24C272.439 5196.75 245.038 5220.71 227.492 5254.52Z" fill="#E2E2E2"/>
<path d="M235.746 50.4944C245.999 67.9877 291.065 79.188 310.026 69.748C293.678 56.5213 258.678 48.0677 235.746 50.4944Z" fill="#E2E2E2"/>
<path d="M289.8 3567.56C289.387 3531.65 263.053 3492.79 240.279 3476.77C162.413 3422.05 76.3063 3494.21 77.9593 3564.8C78.6125 3593.09 96.1193 3625.28 121.973 3630.83C176.012 3642.44 222.773 3591.57 196.252 3548.29C179.72 3542.85 148.933 3541.77 154.987 3567.56C168.933 3579.99 174.053 3552.37 188 3564.8C182.119 3631.72 95.2396 3626.6 94.4661 3562.05C94.026 3525.65 132.866 3475.75 174.252 3474.01C226.547 3471.81 275.24 3521.72 273.293 3573.05C270.532 3645.05 180.732 3698.24 102.719 3688.61C62.3521 3683.63 27.4645 3664.32 0 3637.32V3660.37C30.3145 3685.36 66.8792 3701.37 105.466 3705.11C194.96 3713.81 290.785 3652.09 289.8 3567.56Z" fill="#E2E2E2"/>
<path d="M228.532 2349.47C208.345 2385.41 174.72 2421.89 123.986 2418.24C145.785 2382.25 179.293 2357.99 228.532 2349.47ZM250.547 2368.72C247.679 2411.33 178.732 2460.33 143.252 2443C179.972 2419.2 224.467 2403.16 242.293 2360.47C252.053 2356.17 243.945 2369.81 250.547 2368.72ZM176.267 2467.76C197.225 2447.45 229.773 2438.73 247.785 2415.49C250.345 2448.31 216.759 2468.8 176.267 2467.76ZM212.027 2481.52C223.305 2474.44 238.305 2471.12 245.039 2459.51C254.839 2475.41 224.267 2487.45 212.027 2481.52ZM52.4661 2159.63C38.5464 2157.04 32.626 2146.45 30.4527 2132.12C40.5995 2137.4 57.1063 2148.44 52.4661 2159.63ZM104.732 2404.48C107.732 2409.6 104.786 2418.6 107.479 2423.75C114.026 2436.2 134.252 2441.43 135 2462.25C176.972 2471.56 194.773 2508.89 236.785 2498.03C265.865 2490.48 261.907 2461.27 261.547 2437.49C261.16 2411.64 268.092 2379.39 267.053 2365.97C265.267 2343.29 238.827 2335.35 223.027 2321.95C204.293 2287.92 185.32 2267.87 176.267 2231.16C167.679 2196.39 182.199 2158.17 181.759 2115.61C180.781 2022.85 99.7817 1970.13 0 1979.56V1999.08C77.886 1988.75 162.661 2024.53 165.252 2112.87C166.225 2146.17 154.667 2177.35 154.252 2203.65C153.345 2259.69 191.252 2286.93 206.52 2332.96C198.333 2333.92 189.773 2334.55 187.267 2341.21C164.467 2303.73 113.32 2244.25 101.986 2176.13C95.8125 2139.13 97.3328 2091.29 49.7057 2096.36C26.5391 2098.81 26.6448 2120.99 0 2123.61V2132.11C4.82084 2129.53 10.9719 2128.28 19.4527 2129.37C21.9193 2153.99 39.1724 2178.69 63.4661 2165.13C67.4792 2136.36 47.0656 2132.01 33.1989 2121.12C42.4255 2096.39 76.0921 2107.72 85.4792 2123.87C92.7057 2136.33 88.1724 2149.51 90.9729 2167.88C101.186 2234.35 151.092 2304.87 173.505 2343.96C169.027 2355.04 154.693 2356.33 148.747 2365.97C129.986 2346.19 108.919 2323.85 79.9729 2299.95C60.3197 2283.72 26.8547 2270.55 0 2254.09V2267.73C17.1303 2275.43 37.586 2280.93 55.2131 2291.69C93.9995 2315.32 120.466 2351.99 137.747 2374.23C129.24 2377.63 122.973 2383.29 118.493 2390.73C88.4396 2373.33 86.5729 2350.84 66.2131 2332.96C46.6536 2315.75 23.3459 2307.57 0 2300.52V2317.51C11.4693 2320.77 22.7557 2324.57 33.1989 2330.2C52.8125 2340.77 94.8797 2387.61 104.732 2404.48Z" fill="#E2E2E2"/>
<path d="M33.1989 2178.89C34.2948 2164.08 19.064 2151.57 0 2147.39V2157.63C11.6844 2160.27 20.8828 2169.87 22.1989 2181.64C15.826 2188.8 7.50312 2190.01 0 2187.36V2197.08C15.7073 2200.91 31.9396 2196.03 33.1989 2178.89Z" fill="#E2E2E2"/>
<path d="M191.719 5020.68C180.971 5052.23 156.945 5084.75 161.466 5122.47C175.333 5114 179.638 5092.56 186.225 5075.69C192.826 5058.77 203.305 5037.81 199.971 5020.68C197.225 5020.68 194.478 5020.68 191.719 5020.68Z" fill="#E2E2E2"/>
<path d="M73.9995 751.227C82.0125 741.613 79.6396 765.587 85.0125 767.733C78.9328 775.373 78.2927 754.44 73.9995 751.227ZM43.7464 795.24C37.026 790.014 31.1724 783.96 32.7323 770.48C35.5464 767.787 38.2927 765.027 40.9864 762.227C45.4396 761.453 45.7193 764.814 49.2396 764.974C51.1989 778.867 45.4792 785.054 43.7464 795.24ZM175.8 831C205.092 788.44 194.333 718.014 159.293 682.44C122.253 644.867 56.1724 649.067 24.4792 597.16C22.3953 574.64 13.7943 558.64 0 547.853V586.28C2.35885 587.454 4.675 588.693 5.22604 591.653C3.56979 593.773 1.81041 595.8 0 597.76V632.027C16.4693 650.52 16.9427 681.36 43.7464 707.2C60.2527 723.133 109.88 727.013 115.266 748.467C118.133 759.853 115.626 781.12 93.2661 778.733C92.6531 759.173 91.826 739.8 73.9995 737.467C52.5193 748.693 76.5323 776.453 82.2527 786.987C75.6792 795.52 66.5193 808.387 51.9995 800.747C58.2396 783.734 65.2527 759.773 46.4927 751.227C11.1063 753.253 26.7057 793.427 32.7323 806.24C-17.2536 814.254 7.73229 739.093 2.47917 696.2C1.89531 691.44 1.0375 687.12 0 683.12V807.28C3.28593 811.974 7.66093 815.427 13.4792 817.253C33.5323 823.547 38.2396 802.8 68.5057 811.747C88.1724 801.427 89.2396 783.627 115.266 784.24C150.759 736.334 85.1724 715.294 51.9995 701.707C38.8656 672.507 7.61251 647.2 7.9724 613.667C10.426 611.96 12.9063 610.333 13.4792 613.667C62.4792 675.373 163.107 660.84 175.8 751.227C179.172 775.293 172.387 807.867 159.293 825.507C128.669 866.747 52.7855 889.467 0 873.16V890.387C60.6921 904.933 142.284 879.667 175.8 831Z" fill="#E2E2E2"/>
<path d="M136.707 177.041C143.002 225.854 165.814 272.534 205.48 278.841C182.322 246.974 158.962 215.307 142.2 177.041C140.362 177.041 138.548 177.041 136.707 177.041Z" fill="#E2E2E2"/>
<path d="M51.4396 4160.33C95.2396 4170.65 97.4131 4227.65 117.999 4256.73C139.107 4234 159.585 4252.41 180.547 4238.27C162.039 4218.97 143.119 4227.47 124.24 4231.53C112.186 4202.61 92.586 4146.11 51.7464 4140.89C44.6125 4141.44 37.2396 4155.25 30.1328 4154.16C26.564 4138.57 15.6724 4115.59 0 4099.01V4125.76C18.8667 4155.89 19.624 4187.88 35.0656 4210.67C55.3328 4200.89 32.5464 4176.35 51.4396 4160.33Z" fill="#E2E2E2"/>
<path d="M69.5135 0.000711231H16.5547C32.162 9.24071 51.1047 7.98738 69.5135 0.000711231Z" fill="#E2E2E2"/>
<path d="M133.945 56.0004C93.9188 66.4671 41.0891 65.9203 0 51.5603V69.6671C16.7109 76.1604 34.4027 80.1473 51.4131 80.7473C78.786 81.7207 116.506 79.2938 133.945 56.0004Z" fill="#E2E2E2"/>
<path d="M76.1724 5188.49C176.865 5195.68 93.2396 5343.03 26.6531 5320.55C24.586 5284.53 62.4255 5288.44 70.6792 5262.77C37.1063 5260.6 7.19896 5285.36 10.1458 5328.8C12.2063 5330.53 14.3521 5332.03 16.5568 5333.33H69.5151C113.23 5314.36 153.889 5257.47 139.452 5213.25C119.731 5152.84 50.4307 5168.61 0 5197.57V5213.33C24.7088 5196.76 52.6027 5186.81 76.1724 5188.49Z" fill="#E2E2E2"/>
</svg>
